<svg width="227" height="46" viewBox="0 0 227 46" fill="none" xmlns="http://www.w3.org/2000/svg">
<line x1="-2.18557e-07" y1="20.5" x2="34.7223" y2="20.5" stroke="#211E1E" stroke-width="5"/>
<line x1="192" y1="20.5" x2="226.722" y2="20.5" stroke="#211E1E" stroke-width="5"/>
<path d="M57.568 22.44C56.4827 22.44 55.5293 22.3007 54.708 22.022C53.9013 21.758 53.2267 21.3693 52.684 20.856C52.156 20.3427 51.76 19.712 51.496 18.964C51.232 18.2013 51.1 17.336 51.1 16.368V11.99C51.1 11.1247 51.232 10.34 51.496 9.636C51.7747 8.91733 52.178 8.30133 52.706 7.788C53.234 7.26 53.8793 6.85667 54.642 6.578C55.4193 6.29933 56.2993 6.16 57.282 6.16C58.03 6.16 58.7047 6.23333 59.306 6.38C59.9073 6.512 60.4207 6.688 60.846 6.908C61.2713 7.11333 61.594 7.33333 61.814 7.568C61.858 7.59733 61.8873 7.634 61.902 7.678C61.9167 7.722 61.924 7.766 61.924 7.81C61.9387 7.854 61.946 7.90533 61.946 7.964C61.946 8.50667 61.946 9.14467 61.946 9.878C61.946 10.5967 61.946 11.2787 61.946 11.924C61.4767 11.924 61 11.924 60.516 11.924C60.0467 11.924 59.5773 11.924 59.108 11.924C59.0347 11.924 58.976 11.902 58.932 11.858C58.888 11.814 58.866 11.7553 58.866 11.682C58.866 11.4473 58.866 11.2053 58.866 10.956C58.866 10.7067 58.866 10.4207 58.866 10.098C58.866 9.77533 58.866 9.38667 58.866 8.932L59.482 9.834C59.1447 9.62867 58.7927 9.48933 58.426 9.416C58.074 9.34267 57.6707 9.306 57.216 9.306C56.688 9.306 56.226 9.40133 55.83 9.592C55.4487 9.78267 55.148 10.0833 54.928 10.494C54.7227 10.89 54.62 11.4107 54.62 12.056V16.104C54.62 16.7347 54.6787 17.2627 54.796 17.688C54.9133 18.1133 55.0967 18.4507 55.346 18.7C55.5953 18.9493 55.9107 19.1253 56.292 19.228C56.688 19.316 57.1207 19.36 57.59 19.36C58.382 19.36 59.086 19.2793 59.702 19.118C60.318 18.942 60.9707 18.6413 61.66 18.216H62.1C62.1 18.4507 62.1 18.678 62.1 18.898C62.1 19.118 62.1 19.338 62.1 19.558C62.1 19.7633 62.1 19.9833 62.1 20.218C62.1 20.438 62.1 20.6727 62.1 20.922C62.1 20.9953 62.0853 21.0613 62.056 21.12C62.0413 21.1787 62.012 21.23 61.968 21.274C61.7773 21.4647 61.4693 21.648 61.044 21.824C60.6187 22 60.1053 22.1467 59.504 22.264C58.9173 22.3813 58.272 22.44 57.568 22.44ZM70.1266 6.16C71.2412 6.16 72.2459 6.39467 73.1406 6.864C74.0352 7.33333 74.7466 8.03 75.2746 8.954C75.8026 9.86333 76.0666 11 76.0666 12.364V16.5C76.0666 17.7467 75.8099 18.8173 75.2966 19.712C74.7832 20.592 74.0792 21.2667 73.1846 21.736C72.3046 22.2053 71.2852 22.44 70.1266 22.44C69.0119 22.44 67.9999 22.2053 67.0906 21.736C66.1959 21.2667 65.4846 20.592 64.9566 19.712C64.4432 18.8173 64.1866 17.7467 64.1866 16.5V12.364C64.1866 11 64.4652 9.86333 65.0226 8.954C65.5799 8.03 66.3132 7.33333 67.2226 6.864C68.1319 6.39467 69.0999 6.16 70.1266 6.16ZM67.4866 16.236C67.4866 17.0867 67.5819 17.7027 67.7726 18.084C67.9779 18.4653 68.1759 18.7367 68.3666 18.898C68.5572 19.0447 68.8139 19.1693 69.1366 19.272C69.4592 19.3747 69.8259 19.426 70.2366 19.426C70.7352 19.426 71.1679 19.3087 71.5346 19.074C71.9159 18.8393 72.2166 18.4873 72.4366 18.018C72.6566 17.534 72.7666 16.94 72.7666 16.236V12.1C72.7666 11.66 72.7446 11.2933 72.7006 11C72.6566 10.7067 72.5832 10.4647 72.4806 10.274C72.3779 10.0687 72.2459 9.89267 72.0846 9.746C71.8792 9.54067 71.6226 9.38667 71.3146 9.284C71.0066 9.18133 70.6252 9.13 70.1706 9.13C69.5692 9.13 69.0706 9.25467 68.6746 9.504C68.2786 9.73867 67.9779 10.076 67.7726 10.516C67.5819 10.956 67.4866 11.484 67.4866 12.1V16.236ZM80.3483 15.84H84.7923C85.0416 15.84 85.2836 15.84 85.5183 15.84C85.7676 15.84 86.0096 15.84 86.2443 15.84L87.0583 15.642L87.4103 17.182L87.7403 18.7H80.5463C80.5023 18.7 80.4583 18.6927 80.4143 18.678C80.385 18.6487 80.3556 18.6193 80.3263 18.59C80.3116 18.546 80.3043 18.502 80.3043 18.458L80.3483 15.84ZM81.1183 22C80.605 22 80.0843 22 79.5563 22C79.043 22 78.5296 22 78.0163 22C77.987 22 77.9576 21.9927 77.9283 21.978C77.899 21.9633 77.8696 21.934 77.8403 21.89C77.8256 21.846 77.8256 21.7873 77.8403 21.714C77.9136 21.406 78.0163 20.9513 78.1483 20.35C78.295 19.7487 78.4563 19.052 78.6323 18.26C78.823 17.468 79.021 16.6247 79.2263 15.73C79.4463 14.8207 79.659 13.9187 79.8643 13.024C80.0843 12.1147 80.2896 11.242 80.4803 10.406C80.671 9.57 80.8396 8.82933 80.9863 8.184C81.1476 7.524 81.2723 6.996 81.3603 6.6C82.2843 6.6 83.2376 6.6 84.2203 6.6C85.203 6.6 86.083 6.6 86.8603 6.6C86.919 6.6 86.963 6.61467 86.9923 6.644C87.0216 6.65867 87.0436 6.68067 87.0583 6.71C87.0876 6.73933 87.1096 6.78333 87.1243 6.842C87.3003 7.61933 87.491 8.448 87.6963 9.328C87.9163 10.208 88.1363 11.1467 88.3563 12.144C88.591 13.1267 88.833 14.1607 89.0823 15.246C89.3463 16.3313 89.6103 17.4607 89.8743 18.634C89.9916 19.1767 90.1163 19.7267 90.2483 20.284C90.3803 20.8413 90.4976 21.4133 90.6003 22C90.1456 22 89.647 22 89.1043 22C88.5616 22 88.0556 22 87.5863 22C87.4983 22 87.425 21.9927 87.3663 21.978C87.3223 21.9487 87.2856 21.9047 87.2563 21.846C87.227 21.7873 87.1976 21.6993 87.1683 21.582C86.8163 20.1447 86.501 18.854 86.2223 17.71C85.9583 16.5513 85.7163 15.5173 85.4963 14.608C85.291 13.6987 85.115 12.8847 84.9683 12.166C84.8363 11.4473 84.719 10.802 84.6163 10.23C84.5283 9.658 84.455 9.13733 84.3963 8.668L85.3643 9.24H83.1203L84.0663 8.668C84.0076 9.13733 83.927 9.658 83.8243 10.23C83.7216 10.802 83.5896 11.4547 83.4283 12.188C83.2816 12.9213 83.0983 13.7573 82.8783 14.696C82.6583 15.6347 82.4016 16.7053 82.1083 17.908C81.8296 19.1107 81.4996 20.4747 81.1183 22ZM93.1609 22C93.1316 22 93.1022 21.9927 93.0729 21.978C93.0436 21.9633 93.0142 21.9487 92.9849 21.934C92.9702 21.9047 92.9556 21.8753 92.9409 21.846C92.9262 21.8167 92.9189 21.7873 92.9189 21.758C92.9189 20.6433 92.9189 19.5287 92.9189 18.414C92.9189 17.2993 92.9189 16.1847 92.9189 15.07C92.9189 13.9407 92.9189 12.8187 92.9189 11.704C92.9189 10.5893 92.9189 9.47467 92.9189 8.36C92.9189 8.06667 92.9189 7.77333 92.9189 7.48C92.9189 7.18667 92.9189 6.89333 92.9189 6.6C93.4762 6.6 94.0262 6.6 94.5689 6.6C95.1116 6.6 95.6542 6.6 96.1969 6.6C96.2409 6.6 96.2776 6.61467 96.3069 6.644C96.3509 6.65867 96.3802 6.688 96.3949 6.732C96.4242 6.76133 96.4389 6.798 96.4389 6.842C96.4389 7.83933 96.4389 8.85133 96.4389 9.878C96.4389 10.89 96.4389 11.9093 96.4389 12.936C96.4389 13.9627 96.4389 14.9893 96.4389 16.016C96.4389 17.028 96.4389 18.0327 96.4389 19.03H99.7169C100.157 19.03 100.524 19.0813 100.817 19.184C101.125 19.2867 101.374 19.4553 101.565 19.69C101.77 19.9247 101.932 20.2327 102.049 20.614C102.181 20.9807 102.291 21.4427 102.379 22H93.1609ZM99.2989 17.49C99.6362 17.49 99.9589 17.49 100.267 17.49C100.575 17.49 100.876 17.49 101.169 17.49C101.477 17.49 101.8 17.49 102.137 17.49C102.181 17.49 102.218 17.5047 102.247 17.534C102.291 17.5487 102.32 17.578 102.335 17.622C102.364 17.6513 102.379 17.688 102.379 17.732C102.379 18.0107 102.379 18.3333 102.379 18.7C102.379 19.0667 102.379 19.4553 102.379 19.866C102.379 20.262 102.379 20.6507 102.379 21.032C102.379 21.3987 102.379 21.7213 102.379 22C101.602 21.9267 100.986 21.7727 100.531 21.538C100.076 21.3033 99.7536 21.0027 99.5629 20.636C99.3869 20.2547 99.2989 19.822 99.2989 19.338C99.2989 19.1473 99.2989 18.942 99.2989 18.722C99.2989 18.502 99.2989 18.282 99.2989 18.062C99.2989 17.842 99.2989 17.6513 99.2989 17.49Z" fill="#181717"/>
<path d="M115.568 22.44C114.483 22.44 113.529 22.3007 112.708 22.022C111.901 21.758 111.227 21.3693 110.684 20.856C110.156 20.3427 109.76 19.712 109.496 18.964C109.232 18.2013 109.1 17.336 109.1 16.368V11.99C109.1 11.1247 109.232 10.34 109.496 9.636C109.775 8.91733 110.178 8.30133 110.706 7.788C111.234 7.26 111.879 6.85667 112.642 6.578C113.419 6.29933 114.299 6.16 115.282 6.16C116.03 6.16 116.705 6.23333 117.306 6.38C117.907 6.512 118.421 6.688 118.846 6.908C119.271 7.11333 119.594 7.33333 119.814 7.568C119.858 7.59733 119.887 7.634 119.902 7.678C119.917 7.722 119.924 7.766 119.924 7.81C119.939 7.854 119.946 7.90533 119.946 7.964C119.946 8.50667 119.946 9.14467 119.946 9.878C119.946 10.5967 119.946 11.2787 119.946 11.924C119.477 11.924 119 11.924 118.516 11.924C118.047 11.924 117.577 11.924 117.108 11.924C117.035 11.924 116.976 11.902 116.932 11.858C116.888 11.814 116.866 11.7553 116.866 11.682C116.866 11.4473 116.866 11.2053 116.866 10.956C116.866 10.7067 116.866 10.4207 116.866 10.098C116.866 9.77533 116.866 9.38667 116.866 8.932L117.482 9.834C117.145 9.62867 116.793 9.48933 116.426 9.416C116.074 9.34267 115.671 9.306 115.216 9.306C114.688 9.306 114.226 9.40133 113.83 9.592C113.449 9.78267 113.148 10.0833 112.928 10.494C112.723 10.89 112.62 11.4107 112.62 12.056V16.104C112.62 16.7347 112.679 17.2627 112.796 17.688C112.913 18.1133 113.097 18.4507 113.346 18.7C113.595 18.9493 113.911 19.1253 114.292 19.228C114.688 19.316 115.121 19.36 115.59 19.36C116.382 19.36 117.086 19.2793 117.702 19.118C118.318 18.942 118.971 18.6413 119.66 18.216H120.1C120.1 18.4507 120.1 18.678 120.1 18.898C120.1 19.118 120.1 19.338 120.1 19.558C120.1 19.7633 120.1 19.9833 120.1 20.218C120.1 20.438 120.1 20.6727 120.1 20.922C120.1 20.9953 120.085 21.0613 120.056 21.12C120.041 21.1787 120.012 21.23 119.968 21.274C119.777 21.4647 119.469 21.648 119.044 21.824C118.619 22 118.105 22.1467 117.504 22.264C116.917 22.3813 116.272 22.44 115.568 22.44ZM128.127 6.16C129.241 6.16 130.246 6.39467 131.141 6.864C132.035 7.33333 132.747 8.03 133.275 8.954C133.803 9.86333 134.067 11 134.067 12.364V16.5C134.067 17.7467 133.81 18.8173 133.297 19.712C132.783 20.592 132.079 21.2667 131.185 21.736C130.305 22.2053 129.285 22.44 128.127 22.44C127.012 22.44 126 22.2053 125.091 21.736C124.196 21.2667 123.485 20.592 122.957 19.712C122.443 18.8173 122.187 17.7467 122.187 16.5V12.364C122.187 11 122.465 9.86333 123.023 8.954C123.58 8.03 124.313 7.33333 125.223 6.864C126.132 6.39467 127.1 6.16 128.127 6.16ZM125.487 16.236C125.487 17.0867 125.582 17.7027 125.773 18.084C125.978 18.4653 126.176 18.7367 126.367 18.898C126.557 19.0447 126.814 19.1693 127.137 19.272C127.459 19.3747 127.826 19.426 128.237 19.426C128.735 19.426 129.168 19.3087 129.535 19.074C129.916 18.8393 130.217 18.4873 130.437 18.018C130.657 17.534 130.767 16.94 130.767 16.236V12.1C130.767 11.66 130.745 11.2933 130.701 11C130.657 10.7067 130.583 10.4647 130.481 10.274C130.378 10.0687 130.246 9.89267 130.085 9.746C129.879 9.54067 129.623 9.38667 129.315 9.284C129.007 9.18133 128.625 9.13 128.171 9.13C127.569 9.13 127.071 9.25467 126.675 9.504C126.279 9.73867 125.978 10.076 125.773 10.516C125.582 10.956 125.487 11.484 125.487 12.1V16.236ZM138.348 15.84H142.792C143.042 15.84 143.284 15.84 143.518 15.84C143.768 15.84 144.01 15.84 144.244 15.84L145.058 15.642L145.41 17.182L145.74 18.7H138.546C138.502 18.7 138.458 18.6927 138.414 18.678C138.385 18.6487 138.356 18.6193 138.326 18.59C138.312 18.546 138.304 18.502 138.304 18.458L138.348 15.84ZM139.118 22C138.605 22 138.084 22 137.556 22C137.043 22 136.53 22 136.016 22C135.987 22 135.958 21.9927 135.928 21.978C135.899 21.9633 135.87 21.934 135.84 21.89C135.826 21.846 135.826 21.7873 135.84 21.714C135.914 21.406 136.016 20.9513 136.148 20.35C136.295 19.7487 136.456 19.052 136.632 18.26C136.823 17.468 137.021 16.6247 137.226 15.73C137.446 14.8207 137.659 13.9187 137.864 13.024C138.084 12.1147 138.29 11.242 138.48 10.406C138.671 9.57 138.84 8.82933 138.986 8.184C139.148 7.524 139.272 6.996 139.36 6.6C140.284 6.6 141.238 6.6 142.22 6.6C143.203 6.6 144.083 6.6 144.86 6.6C144.919 6.6 144.963 6.61467 144.992 6.644C145.022 6.65867 145.044 6.68067 145.058 6.71C145.088 6.73933 145.11 6.78333 145.124 6.842C145.3 7.61933 145.491 8.448 145.696 9.328C145.916 10.208 146.136 11.1467 146.356 12.144C146.591 13.1267 146.833 14.1607 147.082 15.246C147.346 16.3313 147.61 17.4607 147.874 18.634C147.992 19.1767 148.116 19.7267 148.248 20.284C148.38 20.8413 148.498 21.4133 148.6 22C148.146 22 147.647 22 147.104 22C146.562 22 146.056 22 145.586 22C145.498 22 145.425 21.9927 145.366 21.978C145.322 21.9487 145.286 21.9047 145.256 21.846C145.227 21.7873 145.198 21.6993 145.168 21.582C144.816 20.1447 144.501 18.854 144.222 17.71C143.958 16.5513 143.716 15.5173 143.496 14.608C143.291 13.6987 143.115 12.8847 142.968 12.166C142.836 11.4473 142.719 10.802 142.616 10.23C142.528 9.658 142.455 9.13733 142.396 8.668L143.364 9.24H141.12L142.066 8.668C142.008 9.13733 141.927 9.658 141.824 10.23C141.722 10.802 141.59 11.4547 141.428 12.188C141.282 12.9213 141.098 13.7573 140.878 14.696C140.658 15.6347 140.402 16.7053 140.108 17.908C139.83 19.1107 139.5 20.4747 139.118 22ZM156.463 6.16C157.504 6.16 158.384 6.28467 159.103 6.534C159.836 6.78333 160.372 7.07667 160.709 7.414C160.768 7.47267 160.804 7.53133 160.819 7.59C160.834 7.64867 160.841 7.722 160.841 7.81C160.841 8.08867 160.841 8.41133 160.841 8.778C160.841 9.13 160.841 9.48933 160.841 9.856C160.841 10.208 160.841 10.5527 160.841 10.89C160.372 10.89 159.888 10.89 159.389 10.89C158.905 10.89 158.428 10.89 157.959 10.89C157.886 10.89 157.827 10.868 157.783 10.824C157.739 10.78 157.717 10.7213 157.717 10.648C157.717 10.5307 157.717 10.406 157.717 10.274C157.717 10.142 157.717 10.0027 157.717 9.856C157.717 9.69467 157.717 9.526 157.717 9.35C157.717 9.15933 157.717 8.94667 157.717 8.712L158.333 9.438C157.996 9.32067 157.688 9.24 157.409 9.196C157.13 9.152 156.815 9.13 156.463 9.13C156.067 9.13 155.722 9.15933 155.429 9.218C155.136 9.262 154.886 9.34267 154.681 9.46C154.49 9.57733 154.344 9.73133 154.241 9.922C154.138 10.098 154.087 10.318 154.087 10.582V11.044C154.087 11.308 154.124 11.528 154.197 11.704C154.285 11.88 154.446 12.034 154.681 12.166C154.93 12.298 155.297 12.4373 155.781 12.584L157.871 13.222C158.56 13.4273 159.132 13.6547 159.587 13.904C160.042 14.1533 160.401 14.4393 160.665 14.762C160.929 15.07 161.112 15.4293 161.215 15.84C161.332 16.236 161.391 16.6907 161.391 17.204V18.26C161.391 19.1253 161.156 19.8733 160.687 20.504C160.218 21.1347 159.543 21.6187 158.663 21.956C157.798 22.2787 156.749 22.44 155.517 22.44C154.813 22.44 154.146 22.396 153.515 22.308C152.899 22.22 152.356 22.088 151.887 21.912C151.432 21.736 151.08 21.5307 150.831 21.296C150.787 21.252 150.75 21.208 150.721 21.164C150.706 21.1053 150.699 21.0027 150.699 20.856C150.699 20.5773 150.699 20.2987 150.699 20.02C150.699 19.7413 150.699 19.448 150.699 19.14C150.699 18.832 150.699 18.5093 150.699 18.172H151.139C151.799 18.5973 152.488 18.92 153.207 19.14C153.926 19.3453 154.776 19.448 155.759 19.448C156.624 19.448 157.24 19.3233 157.607 19.074C157.974 18.81 158.157 18.524 158.157 18.216V17.402C158.157 17.1967 158.12 17.0207 158.047 16.874C157.988 16.7273 157.842 16.588 157.607 16.456C157.387 16.3093 157.02 16.1627 156.507 16.016L154.439 15.378C153.706 15.158 153.104 14.9013 152.635 14.608C152.166 14.3147 151.799 14.0067 151.535 13.684C151.286 13.3467 151.11 12.9947 151.007 12.628C150.904 12.2467 150.853 11.858 150.853 11.462V10.34C150.853 9.73867 150.978 9.18867 151.227 8.69C151.491 8.17667 151.865 7.72933 152.349 7.348C152.848 6.96667 153.442 6.67333 154.131 6.468C154.82 6.26267 155.598 6.16 156.463 6.16ZM163.004 6.6H173.762C173.836 6.6 173.894 6.622 173.938 6.666C173.982 6.71 174.004 6.76867 174.004 6.842C174.004 7.34067 174.004 7.79533 174.004 8.206C174.004 8.602 174.004 9.05667 174.004 9.57H163.246C163.202 9.57 163.158 9.56267 163.114 9.548C163.085 9.51867 163.056 9.48933 163.026 9.46C163.012 9.416 163.004 9.372 163.004 9.328C163.004 8.81467 163.004 8.36 163.004 7.964C163.004 7.55333 163.004 7.09867 163.004 6.6ZM170.264 22C169.722 22 169.179 22 168.636 22C168.094 22 167.544 22 166.986 22C166.913 22 166.854 21.978 166.81 21.934C166.766 21.89 166.744 21.8313 166.744 21.758C166.744 20.5847 166.744 19.448 166.744 18.348C166.744 17.2333 166.744 16.126 166.744 15.026C166.744 13.926 166.744 12.8187 166.744 11.704C166.744 10.5893 166.744 9.45267 166.744 8.294H170.528L170.264 8.954C170.264 9.23267 170.264 9.526 170.264 9.834C170.264 10.142 170.264 10.4427 170.264 10.736C170.264 11.0147 170.264 11.286 170.264 11.55C170.264 12.474 170.264 13.376 170.264 14.256C170.264 15.136 170.264 16.0307 170.264 16.94C170.264 17.8493 170.264 18.8173 170.264 19.844C170.264 20.24 170.264 20.6213 170.264 20.988C170.264 21.3547 170.264 21.692 170.264 22Z" fill="#181717"/>
<path d="M55.504 38.32C54.7147 38.32 54.0213 38.2187 53.424 38.016C52.8373 37.824 52.3467 37.5413 51.952 37.168C51.568 36.7947 51.28 36.336 51.088 35.792C50.896 35.2373 50.8 34.608 50.8 33.904V30.72C50.8 30.0907 50.896 29.52 51.088 29.008C51.2907 28.4853 51.584 28.0373 51.968 27.664C52.352 27.28 52.8213 26.9867 53.376 26.784C53.9413 26.5813 54.5813 26.48 55.296 26.48C55.84 26.48 56.3307 26.5333 56.768 26.64C57.2053 26.736 57.5787 26.864 57.888 27.024C58.1973 27.1733 58.432 27.3333 58.592 27.504C58.624 27.5253 58.6453 27.552 58.656 27.584C58.6667 27.616 58.672 27.648 58.672 27.68C58.6827 27.712 58.688 27.7493 58.688 27.792C58.688 28.1867 58.688 28.6507 58.688 29.184C58.688 29.7067 58.688 30.2027 58.688 30.672C58.3467 30.672 58 30.672 57.648 30.672C57.3067 30.672 56.9653 30.672 56.624 30.672C56.5707 30.672 56.528 30.656 56.496 30.624C56.464 30.592 56.448 30.5493 56.448 30.496C56.448 30.3253 56.448 30.1493 56.448 29.968C56.448 29.7867 56.448 29.5787 56.448 29.344C56.448 29.1093 56.448 28.8267 56.448 28.496L56.896 29.152C56.6507 29.0027 56.3947 28.9013 56.128 28.848C55.872 28.7947 55.5787 28.768 55.248 28.768C54.864 28.768 54.528 28.8373 54.24 28.976C53.9627 29.1147 53.744 29.3333 53.584 29.632C53.4347 29.92 53.36 30.2987 53.36 30.768V33.712C53.36 34.1707 53.4027 34.5547 53.488 34.864C53.5733 35.1733 53.7067 35.4187 53.888 35.6C54.0693 35.7813 54.2987 35.9093 54.576 35.984C54.864 36.048 55.1787 36.08 55.52 36.08C56.096 36.08 56.608 36.0213 57.056 35.904C57.504 35.776 57.9787 35.5573 58.48 35.248H58.8C58.8 35.4187 58.8 35.584 58.8 35.744C58.8 35.904 58.8 36.064 58.8 36.224C58.8 36.3733 58.8 36.5333 58.8 36.704C58.8 36.864 58.8 37.0347 58.8 37.216C58.8 37.2693 58.7893 37.3173 58.768 37.36C58.7573 37.4027 58.736 37.44 58.704 37.472C58.5653 37.6107 58.3413 37.744 58.032 37.872C57.7227 38 57.3493 38.1067 56.912 38.192C56.4853 38.2773 56.016 38.32 55.504 38.32ZM64.6375 26.48C65.4482 26.48 66.1788 26.6507 66.8295 26.992C67.4802 27.3333 67.9975 27.84 68.3815 28.512C68.7655 29.1733 68.9575 30 68.9575 30.992V34C68.9575 34.9067 68.7708 35.6853 68.3975 36.336C68.0242 36.976 67.5122 37.4667 66.8615 37.808C66.2215 38.1493 65.4802 38.32 64.6375 38.32C63.8268 38.32 63.0908 38.1493 62.4295 37.808C61.7788 37.4667 61.2615 36.976 60.8775 36.336C60.5042 35.6853 60.3175 34.9067 60.3175 34V30.992C60.3175 30 60.5202 29.1733 60.9255 28.512C61.3308 27.84 61.8642 27.3333 62.5255 26.992C63.1868 26.6507 63.8908 26.48 64.6375 26.48ZM62.7175 33.808C62.7175 34.4267 62.7868 34.8747 62.9255 35.152C63.0748 35.4293 63.2188 35.6267 63.3575 35.744C63.4962 35.8507 63.6828 35.9413 63.9175 36.016C64.1522 36.0907 64.4188 36.128 64.7175 36.128C65.0802 36.128 65.3948 36.0427 65.6615 35.872C65.9388 35.7013 66.1575 35.4453 66.3175 35.104C66.4775 34.752 66.5575 34.32 66.5575 33.808V30.8C66.5575 30.48 66.5415 30.2133 66.5095 30C66.4775 29.7867 66.4242 29.6107 66.3495 29.472C66.2748 29.3227 66.1788 29.1947 66.0615 29.088C65.9122 28.9387 65.7255 28.8267 65.5015 28.752C65.2775 28.6773 65.0002 28.64 64.6695 28.64C64.2322 28.64 63.8695 28.7307 63.5815 28.912C63.2935 29.0827 63.0748 29.328 62.9255 29.648C62.7868 29.968 62.7175 30.352 62.7175 30.8V33.808ZM73.3638 38C73.0011 38 72.6331 38 72.2598 38C71.8864 38 71.5131 38 71.1398 38C71.1078 38 71.0758 37.9947 71.0438 37.984C71.0224 37.9627 71.0011 37.9413 70.9798 37.92C70.9691 37.888 70.9638 37.856 70.9638 37.824C70.9638 37.0347 70.9638 36.2507 70.9638 35.472C70.9638 34.6827 70.9638 33.8987 70.9638 33.12C70.9638 32.3307 70.9638 31.5413 70.9638 30.752C70.9638 29.9627 70.9638 29.1787 70.9638 28.4C70.9638 28.1333 70.9638 27.8667 70.9638 27.6C70.9638 27.3333 70.9638 27.0667 70.9638 26.8C71.2091 26.8 71.5184 26.8 71.8918 26.8C72.2651 26.8 72.6278 26.8 72.9798 26.8C73.3424 26.8 73.6304 26.8 73.8438 26.8C73.9184 26.8 73.9771 26.8107 74.0198 26.832C74.0624 26.8533 74.0998 26.8907 74.1318 26.944C74.1744 26.9973 74.2171 27.0827 74.2598 27.2C74.4198 27.584 74.5691 27.9627 74.7078 28.336C74.8571 28.6987 75.0011 29.0613 75.1398 29.424C75.2784 29.776 75.4118 30.1387 75.5398 30.512C75.6784 30.8747 75.8171 31.248 75.9558 31.632C76.0944 32.016 76.2331 32.4213 76.3718 32.848L75.6838 32.16H76.8518L76.1478 32.848C76.2864 32.4213 76.4198 32.016 76.5478 31.632C76.6864 31.2373 76.8198 30.8533 76.9478 30.48C77.0864 30.1067 77.2251 29.728 77.3638 29.344C77.5024 28.96 77.6464 28.56 77.7958 28.144C77.9558 27.7173 78.1264 27.2693 78.3078 26.8C78.5531 26.8 78.8678 26.8 79.2517 26.8C79.6358 26.8 80.0198 26.8 80.4038 26.8C80.7878 26.8 81.1024 26.8 81.3478 26.8C81.3798 26.8 81.4064 26.8107 81.4278 26.832C81.4598 26.8427 81.4811 26.864 81.4918 26.896C81.5131 26.9173 81.5238 26.944 81.5238 26.976C81.5238 27.4987 81.5238 28.0213 81.5238 28.544C81.5238 29.0667 81.5238 29.5893 81.5238 30.112C81.5238 30.6347 81.5238 31.1627 81.5238 31.696C81.5238 32.2187 81.5238 32.7413 81.5238 33.264C81.5238 33.7867 81.5238 34.3147 81.5238 34.848C81.5238 35.3707 81.5238 35.8933 81.5238 36.416C81.5238 36.5867 81.5238 36.7627 81.5238 36.944C81.5238 37.1147 81.5238 37.2907 81.5238 37.472C81.5238 37.6427 81.5238 37.8187 81.5238 38C81.1611 38 80.7931 38 80.4198 38C80.0464 38 79.6731 38 79.2998 38C79.2678 38 79.2358 37.9947 79.2038 37.984C79.1824 37.9627 79.1611 37.9413 79.1398 37.92C79.1291 37.888 79.1238 37.856 79.1238 37.824C79.1238 37.6 79.1238 37.3813 79.1238 37.168C79.1238 36.9547 79.1238 36.7413 79.1238 36.528C79.1238 36.304 79.1238 36.0853 79.1238 35.872C79.1238 35.584 79.1238 35.3013 79.1238 35.024C79.1344 34.7467 79.1451 34.4693 79.1558 34.192C79.1664 33.904 79.1824 33.6107 79.2038 33.312C79.2251 33.0133 79.2518 32.6987 79.2838 32.368C79.3264 32.0373 79.3691 31.68 79.4118 31.296C79.4544 30.912 79.5078 30.5013 79.5718 30.064L79.8758 30.544H78.7078L79.3798 30.096C79.2411 30.4693 79.0971 30.848 78.9478 31.232C78.7984 31.616 78.6491 32 78.4998 32.384C78.3504 32.768 78.2011 33.1573 78.0518 33.552C77.9024 33.936 77.7531 34.32 77.6038 34.704C77.4544 35.088 77.3104 35.4667 77.1718 35.84C76.8838 35.84 76.5958 35.84 76.3078 35.84C76.0198 35.84 75.7318 35.84 75.4438 35.84C75.4118 35.84 75.3744 35.8347 75.3318 35.824C75.2998 35.8027 75.2731 35.7653 75.2518 35.712C75.1131 35.3493 74.9691 34.9813 74.8198 34.608C74.6704 34.2347 74.5211 33.856 74.3718 33.472C74.2331 33.088 74.0891 32.7093 73.9398 32.336C73.7904 31.952 73.6411 31.5733 73.4918 31.2C73.3531 30.8267 73.2144 30.4587 73.0758 30.096L73.7318 30.544H72.5798L72.8838 30.064C72.9478 30.4907 73.0064 30.896 73.0598 31.28C73.1131 31.6533 73.1558 32.0053 73.1878 32.336C73.2198 32.656 73.2464 32.9707 73.2678 33.28C73.2998 33.5787 73.3211 33.872 73.3318 34.16C73.3424 34.4373 73.3478 34.72 73.3478 35.008C73.3584 35.2853 73.3638 35.5733 73.3638 35.872C73.3638 36.224 73.3638 36.5813 73.3638 36.944C73.3638 37.296 73.3638 37.648 73.3638 38ZM86.4006 38C86.006 38 85.6113 38 85.2166 38C84.822 38 84.422 38 84.0166 38C83.9633 38 83.9206 37.984 83.8886 37.952C83.8566 37.92 83.8406 37.8773 83.8406 37.824C83.8406 36.9707 83.8406 36.1493 83.8406 35.36C83.8406 34.56 83.8406 33.7707 83.8406 32.992C83.8406 32.2027 83.8406 31.408 83.8406 30.608C83.8406 29.808 83.8406 28.9867 83.8406 28.144H86.5926L86.4006 28.624C86.4006 28.9333 86.4006 29.216 86.4006 29.472C86.4006 29.728 86.4006 29.9947 86.4006 30.272C86.4006 30.944 86.4006 31.6107 86.4006 32.272C86.4006 32.9333 86.4006 33.6053 86.4006 34.288C86.4006 34.9707 86.4006 35.6853 86.4006 36.432C86.4006 36.72 86.4006 36.9973 86.4006 37.264C86.4006 37.5307 86.4006 37.776 86.4006 38ZM83.1206 26.8C83.846 26.8 84.614 26.8 85.4246 26.8C86.246 26.8 86.9766 26.8 87.6166 26.8C88.1606 26.8 88.6406 26.8533 89.0566 26.96C89.4726 27.0667 89.8246 27.2213 90.1126 27.424C90.4113 27.616 90.6513 27.856 90.8326 28.144C91.014 28.4213 91.1473 28.7413 91.2326 29.104C91.318 29.456 91.3606 29.8453 91.3606 30.272V31.232C91.3606 31.776 91.2913 32.2667 91.1526 32.704C91.0246 33.1307 90.8113 33.4933 90.5126 33.792C90.2246 34.0907 89.8406 34.32 89.3606 34.48C88.8806 34.64 88.2993 34.72 87.6166 34.72C87.3713 34.72 87.1206 34.72 86.8646 34.72C86.6086 34.72 86.3526 34.72 86.0966 34.72L85.9206 34.784V32.56C86.2406 32.56 86.55 32.56 86.8486 32.56C87.158 32.56 87.414 32.56 87.6166 32.56C87.8193 32.56 87.9953 32.5387 88.1446 32.496C88.294 32.4533 88.4166 32.3893 88.5126 32.304C88.6086 32.208 88.678 32.0853 88.7206 31.936C88.774 31.776 88.8006 31.5787 88.8006 31.344V30.16C88.8006 29.9253 88.7793 29.7333 88.7366 29.584C88.694 29.424 88.6246 29.296 88.5286 29.2C88.4326 29.104 88.31 29.04 88.1606 29.008C88.022 28.9653 87.846 28.944 87.6326 28.944C87.1633 28.944 86.6833 28.944 86.1926 28.944C85.702 28.944 85.2113 28.944 84.7206 28.944C84.23 28.944 83.7553 28.944 83.2966 28.944C83.2433 28.944 83.2006 28.928 83.1686 28.896C83.1366 28.864 83.1206 28.8213 83.1206 28.768C83.1206 28.416 83.1206 28.0907 83.1206 27.792C83.1206 27.4827 83.1206 27.152 83.1206 26.8ZM101.514 38C101.248 38 100.981 38 100.714 38C100.458 38 100.197 38 99.9304 38C99.6637 38 99.397 38 99.1304 38C99.109 38 99.0877 38 99.0664 38C99.045 37.9893 99.029 37.9787 99.0184 37.968C99.0077 37.9573 98.997 37.9467 98.9864 37.936C98.9757 37.9253 98.965 37.9093 98.9544 37.888C98.9544 37.8667 98.9544 37.8453 98.9544 37.824C98.9544 36.9067 98.9544 35.9893 98.9544 35.072C98.9544 34.1547 98.9544 33.2373 98.9544 32.32C98.9544 31.392 98.9544 30.4693 98.9544 29.552C98.9544 28.6347 98.9544 27.7173 98.9544 26.8C99.221 26.8 99.4824 26.8 99.7384 26.8C100.005 26.8 100.272 26.8 100.538 26.8C100.805 26.8 101.072 26.8 101.338 26.8C101.37 26.8 101.397 26.8107 101.418 26.832C101.45 26.8427 101.472 26.864 101.482 26.896C101.504 26.9173 101.514 26.944 101.514 26.976C101.514 27.744 101.514 28.5173 101.514 29.296C101.514 30.064 101.514 30.8373 101.514 31.616C101.514 32.384 101.514 33.1573 101.514 33.936C101.514 34.704 101.514 35.472 101.514 36.24C101.514 36.56 101.514 36.8693 101.514 37.168C101.514 37.4667 101.514 37.744 101.514 38ZM95.9464 38.16C95.4877 38.16 95.093 38.096 94.7624 37.968C94.4424 37.84 94.1757 37.6533 93.9624 37.408C93.7597 37.152 93.605 36.8427 93.4984 36.48C93.4024 36.1173 93.3544 35.696 93.3544 35.216C93.3544 34.512 93.3544 33.7867 93.3544 33.04C93.3544 32.2933 93.3544 31.5307 93.3544 30.752C93.3544 29.9627 93.3544 29.1787 93.3544 28.4C93.3544 28.1333 93.3544 27.8667 93.3544 27.6C93.3544 27.3333 93.3544 27.0667 93.3544 26.8C93.7597 26.8 94.1597 26.8 94.5544 26.8C94.949 26.8 95.3437 26.8 95.7384 26.8C95.781 26.8 95.813 26.8107 95.8344 26.832C95.8557 26.8427 95.8717 26.8587 95.8824 26.88C95.9037 26.9013 95.9144 26.9333 95.9144 26.976C95.9144 27.8613 95.9144 28.768 95.9144 29.696C95.9144 30.624 95.9144 31.5467 95.9144 32.464C95.9144 33.3707 95.9144 34.2347 95.9144 35.056C95.9144 35.376 95.973 35.6 96.0904 35.728C96.2184 35.856 96.4424 35.92 96.7624 35.92C97.0824 35.92 97.3864 35.8613 97.6744 35.744C97.9624 35.616 98.2397 35.4293 98.5064 35.184C98.7837 34.9387 99.0504 34.6347 99.3064 34.272V36.544H98.6344C98.4424 36.896 98.2184 37.1947 97.9624 37.44C97.7064 37.6747 97.4077 37.856 97.0664 37.984C96.7357 38.1013 96.3624 38.16 95.9464 38.16ZM103.441 26.8H111.265C111.318 26.8 111.361 26.816 111.393 26.848C111.425 26.88 111.441 26.9227 111.441 26.976C111.441 27.3387 111.441 27.6693 111.441 27.968C111.441 28.256 111.441 28.5867 111.441 28.96H103.617C103.585 28.96 103.553 28.9547 103.521 28.944C103.499 28.9227 103.478 28.9013 103.457 28.88C103.446 28.848 103.441 28.816 103.441 28.784C103.441 28.4107 103.441 28.08 103.441 27.792C103.441 27.4933 103.441 27.1627 103.441 26.8ZM108.721 38C108.326 38 107.931 38 107.537 38C107.142 38 106.742 38 106.337 38C106.283 38 106.241 37.984 106.209 37.952C106.177 37.92 106.161 37.8773 106.161 37.824C106.161 36.9707 106.161 36.144 106.161 35.344C106.161 34.5333 106.161 33.728 106.161 32.928C106.161 32.128 106.161 31.3227 106.161 30.512C106.161 29.7013 106.161 28.8747 106.161 28.032H108.913L108.721 28.512C108.721 28.7147 108.721 28.928 108.721 29.152C108.721 29.376 108.721 29.5947 108.721 29.808C108.721 30.0107 108.721 30.208 108.721 30.4C108.721 31.072 108.721 31.728 108.721 32.368C108.721 33.008 108.721 33.6587 108.721 34.32C108.721 34.9813 108.721 35.6853 108.721 36.432C108.721 36.72 108.721 36.9973 108.721 37.264C108.721 37.5307 108.721 37.776 108.721 38ZM112.714 26.8H120.058C120.09 26.8 120.117 26.8107 120.138 26.832C120.17 26.8427 120.192 26.864 120.202 26.896C120.224 26.9173 120.234 26.944 120.234 26.976C120.234 27.3387 120.234 27.6693 120.234 27.968C120.234 28.256 120.234 28.5867 120.234 28.96H112.89C112.858 28.96 112.826 28.9547 112.794 28.944C112.773 28.9227 112.752 28.9013 112.73 28.88C112.72 28.848 112.714 28.816 112.714 28.784C112.714 28.4107 112.714 28.08 112.714 27.792C112.714 27.4933 112.714 27.1627 112.714 26.8ZM115.05 31.344H119.098C119.13 31.344 119.157 31.3547 119.178 31.376C119.21 31.3867 119.232 31.408 119.242 31.44C119.264 31.4613 119.274 31.488 119.274 31.52C119.274 31.7653 119.274 31.9947 119.274 32.208C119.274 32.4213 119.274 32.624 119.274 32.816C119.274 33.008 119.274 33.2107 119.274 33.424H115.05V31.344ZM113.61 38C113.589 38 113.568 37.9947 113.546 37.984C113.525 37.9733 113.504 37.9627 113.482 37.952C113.472 37.9307 113.461 37.9093 113.45 37.888C113.44 37.8667 113.434 37.8453 113.434 37.824C113.434 37.6107 113.434 37.248 113.434 36.736C113.434 36.2133 113.434 35.6 113.434 34.896C113.434 34.1813 113.434 33.4293 113.434 32.64C113.434 31.84 113.434 31.0507 113.434 30.272C113.434 29.4933 113.434 28.784 113.434 28.144H116.122L115.994 28.528C115.994 28.784 115.994 29.0453 115.994 29.312C115.994 29.568 115.994 29.824 115.994 30.08C115.994 30.5493 115.994 31.0293 115.994 31.52C115.994 32 115.994 32.4853 115.994 32.976C115.994 33.456 115.994 33.936 115.994 34.416C115.994 34.896 115.994 35.3707 115.994 35.84H120.058C120.112 35.84 120.154 35.856 120.186 35.888C120.218 35.92 120.234 35.9627 120.234 36.016C120.234 36.368 120.234 36.6987 120.234 37.008C120.234 37.3173 120.234 37.648 120.234 38H113.61ZM127.527 32.912C127.794 33.3813 128.034 33.808 128.247 34.192C128.471 34.576 128.711 35.0027 128.967 35.472C129.053 35.6107 129.127 35.7067 129.191 35.76C129.266 35.8133 129.357 35.84 129.463 35.84C129.506 35.84 129.538 35.84 129.559 35.84C129.591 35.84 129.629 35.84 129.671 35.84H129.991C129.991 36.2027 129.991 36.5333 129.991 36.832C129.991 37.1307 129.991 37.4613 129.991 37.824C129.991 37.8773 129.975 37.92 129.943 37.952C129.911 37.984 129.869 38 129.815 38C129.741 38 129.634 38 129.495 38C129.367 38 129.25 38 129.143 38C128.759 38 128.439 37.9733 128.183 37.92C127.927 37.8667 127.709 37.7653 127.527 37.616C127.346 37.4667 127.181 37.248 127.031 36.96C126.765 36.4373 126.498 35.9147 126.231 35.392C125.975 34.8693 125.709 34.3467 125.431 33.824L127.527 32.912ZM121.511 26.8C122.237 26.8 122.967 26.8 123.703 26.8C124.439 26.8 125.17 26.8 125.895 26.8C126.567 26.8 127.138 26.88 127.607 27.04C128.077 27.1893 128.455 27.4133 128.743 27.712C129.042 28.0107 129.255 28.368 129.383 28.784C129.522 29.1893 129.591 29.648 129.591 30.16V31.104C129.591 31.5947 129.517 32.0373 129.367 32.432C129.218 32.8267 128.999 33.1627 128.711 33.44C128.423 33.7067 128.077 33.9147 127.671 34.064C127.266 34.2027 126.807 34.272 126.295 34.272C125.997 34.272 125.693 34.272 125.383 34.272C125.085 34.272 124.786 34.272 124.487 34.272L124.311 34.352V32.192C124.589 32.192 124.866 32.192 125.143 32.192C125.431 32.192 125.714 32.192 125.991 32.192C126.247 32.192 126.455 32.1547 126.615 32.08C126.786 32.0053 126.909 31.888 126.983 31.728C127.069 31.568 127.111 31.3707 127.111 31.136V30.016C127.111 29.8347 127.09 29.68 127.047 29.552C127.005 29.424 126.941 29.3173 126.855 29.232C126.77 29.1467 126.653 29.0827 126.503 29.04C126.365 28.9867 126.194 28.96 125.991 28.96C125.522 28.96 125.042 28.96 124.551 28.96C124.071 28.96 123.591 28.96 123.111 28.96C122.642 28.96 122.167 28.96 121.687 28.96C121.634 28.96 121.591 28.944 121.559 28.912C121.527 28.88 121.511 28.8373 121.511 28.784C121.511 28.432 121.511 28.1013 121.511 27.792C121.511 27.4827 121.511 27.152 121.511 26.8ZM124.711 38C124.317 38 123.933 38 123.559 38C123.197 38 122.813 38 122.407 38C122.354 38 122.311 37.984 122.279 37.952C122.247 37.92 122.231 37.8773 122.231 37.824C122.231 36.9707 122.231 36.1493 122.231 35.36C122.231 34.56 122.231 33.7707 122.231 32.992C122.231 32.2027 122.231 31.408 122.231 30.608C122.231 29.808 122.231 28.9867 122.231 28.144H124.903L124.711 28.624C124.711 28.9333 124.711 29.2373 124.711 29.536C124.711 29.8347 124.711 30.1227 124.711 30.4C124.711 31.072 124.711 31.728 124.711 32.368C124.711 33.008 124.711 33.6587 124.711 34.32C124.711 34.9813 124.711 35.6853 124.711 36.432C124.711 36.72 124.711 36.9973 124.711 37.264C124.711 37.5307 124.711 37.776 124.711 38Z" fill="#181717"/>
<path d="M141.504 38.32C140.715 38.32 140.021 38.2187 139.424 38.016C138.837 37.824 138.347 37.5413 137.952 37.168C137.568 36.7947 137.28 36.336 137.088 35.792C136.896 35.2373 136.8 34.608 136.8 33.904V30.72C136.8 30.0907 136.896 29.52 137.088 29.008C137.291 28.4853 137.584 28.0373 137.968 27.664C138.352 27.28 138.821 26.9867 139.376 26.784C139.941 26.5813 140.581 26.48 141.296 26.48C141.84 26.48 142.331 26.5333 142.768 26.64C143.205 26.736 143.579 26.864 143.888 27.024C144.197 27.1733 144.432 27.3333 144.592 27.504C144.624 27.5253 144.645 27.552 144.656 27.584C144.667 27.616 144.672 27.648 144.672 27.68C144.683 27.712 144.688 27.7493 144.688 27.792C144.688 28.1867 144.688 28.6507 144.688 29.184C144.688 29.7067 144.688 30.2027 144.688 30.672C144.347 30.672 144 30.672 143.648 30.672C143.307 30.672 142.965 30.672 142.624 30.672C142.571 30.672 142.528 30.656 142.496 30.624C142.464 30.592 142.448 30.5493 142.448 30.496C142.448 30.3253 142.448 30.1493 142.448 29.968C142.448 29.7867 142.448 29.5787 142.448 29.344C142.448 29.1093 142.448 28.8267 142.448 28.496L142.896 29.152C142.651 29.0027 142.395 28.9013 142.128 28.848C141.872 28.7947 141.579 28.768 141.248 28.768C140.864 28.768 140.528 28.8373 140.24 28.976C139.963 29.1147 139.744 29.3333 139.584 29.632C139.435 29.92 139.36 30.2987 139.36 30.768V33.712C139.36 34.1707 139.403 34.5547 139.488 34.864C139.573 35.1733 139.707 35.4187 139.888 35.6C140.069 35.7813 140.299 35.9093 140.576 35.984C140.864 36.048 141.179 36.08 141.52 36.08C142.096 36.08 142.608 36.0213 143.056 35.904C143.504 35.776 143.979 35.5573 144.48 35.248H144.8C144.8 35.4187 144.8 35.584 144.8 35.744C144.8 35.904 144.8 36.064 144.8 36.224C144.8 36.3733 144.8 36.5333 144.8 36.704C144.8 36.864 144.8 37.0347 144.8 37.216C144.8 37.2693 144.789 37.3173 144.768 37.36C144.757 37.4027 144.736 37.44 144.704 37.472C144.565 37.6107 144.341 37.744 144.032 37.872C143.723 38 143.349 38.1067 142.912 38.192C142.485 38.2773 142.016 38.32 141.504 38.32ZM146.89 38C146.868 38 146.847 37.9947 146.826 37.984C146.804 37.9733 146.783 37.9627 146.762 37.952C146.751 37.9307 146.74 37.9093 146.73 37.888C146.719 37.8667 146.714 37.8453 146.714 37.824C146.714 37.0133 146.714 36.2027 146.714 35.392C146.714 34.5813 146.714 33.7707 146.714 32.96C146.714 32.1387 146.714 31.3227 146.714 30.512C146.714 29.7013 146.714 28.8907 146.714 28.08C146.714 27.8667 146.714 27.6533 146.714 27.44C146.714 27.2267 146.714 27.0133 146.714 26.8C147.119 26.8 147.519 26.8 147.914 26.8C148.308 26.8 148.703 26.8 149.098 26.8C149.13 26.8 149.156 26.8107 149.178 26.832C149.21 26.8427 149.231 26.864 149.242 26.896C149.263 26.9173 149.274 26.944 149.274 26.976C149.274 27.7013 149.274 28.4373 149.274 29.184C149.274 29.92 149.274 30.6613 149.274 31.408C149.274 32.1547 149.274 32.9013 149.274 33.648C149.274 34.384 149.274 35.1147 149.274 35.84H151.658C151.978 35.84 152.244 35.8773 152.458 35.952C152.682 36.0267 152.863 36.1493 153.002 36.32C153.151 36.4907 153.268 36.7147 153.354 36.992C153.45 37.2587 153.53 37.5947 153.594 38H146.89ZM151.354 34.72C151.599 34.72 151.834 34.72 152.058 34.72C152.282 34.72 152.5 34.72 152.714 34.72C152.938 34.72 153.172 34.72 153.418 34.72C153.45 34.72 153.476 34.7307 153.498 34.752C153.53 34.7627 153.551 34.784 153.562 34.816C153.583 34.8373 153.594 34.864 153.594 34.896C153.594 35.0987 153.594 35.3333 153.594 35.6C153.594 35.8667 153.594 36.1493 153.594 36.448C153.594 36.736 153.594 37.0187 153.594 37.296C153.594 37.5627 153.594 37.7973 153.594 38C153.028 37.9467 152.58 37.8347 152.25 37.664C151.919 37.4933 151.684 37.2747 151.546 37.008C151.418 36.7307 151.354 36.416 151.354 36.064C151.354 35.9253 151.354 35.776 151.354 35.616C151.354 35.456 151.354 35.296 151.354 35.136C151.354 34.976 151.354 34.8373 151.354 34.72ZM163.671 38C163.404 38 163.137 38 162.871 38C162.615 38 162.353 38 162.087 38C161.82 38 161.553 38 161.287 38C161.265 38 161.244 38 161.223 38C161.201 37.9893 161.185 37.9787 161.175 37.968C161.164 37.9573 161.153 37.9467 161.143 37.936C161.132 37.9253 161.121 37.9093 161.111 37.888C161.111 37.8667 161.111 37.8453 161.111 37.824C161.111 36.9067 161.111 35.9893 161.111 35.072C161.111 34.1547 161.111 33.2373 161.111 32.32C161.111 31.392 161.111 30.4693 161.111 29.552C161.111 28.6347 161.111 27.7173 161.111 26.8C161.377 26.8 161.639 26.8 161.895 26.8C162.161 26.8 162.428 26.8 162.695 26.8C162.961 26.8 163.228 26.8 163.495 26.8C163.527 26.8 163.553 26.8107 163.575 26.832C163.607 26.8427 163.628 26.864 163.639 26.896C163.66 26.9173 163.671 26.944 163.671 26.976C163.671 27.744 163.671 28.5173 163.671 29.296C163.671 30.064 163.671 30.8373 163.671 31.616C163.671 32.384 163.671 33.1573 163.671 33.936C163.671 34.704 163.671 35.472 163.671 36.24C163.671 36.56 163.671 36.8693 163.671 37.168C163.671 37.4667 163.671 37.744 163.671 38ZM158.103 38.16C157.644 38.16 157.249 38.096 156.919 37.968C156.599 37.84 156.332 37.6533 156.119 37.408C155.916 37.152 155.761 36.8427 155.655 36.48C155.559 36.1173 155.511 35.696 155.511 35.216C155.511 34.512 155.511 33.7867 155.511 33.04C155.511 32.2933 155.511 31.5307 155.511 30.752C155.511 29.9627 155.511 29.1787 155.511 28.4C155.511 28.1333 155.511 27.8667 155.511 27.6C155.511 27.3333 155.511 27.0667 155.511 26.8C155.916 26.8 156.316 26.8 156.711 26.8C157.105 26.8 157.5 26.8 157.895 26.8C157.937 26.8 157.969 26.8107 157.991 26.832C158.012 26.8427 158.028 26.8587 158.039 26.88C158.06 26.9013 158.071 26.9333 158.071 26.976C158.071 27.8613 158.071 28.768 158.071 29.696C158.071 30.624 158.071 31.5467 158.071 32.464C158.071 33.3707 158.071 34.2347 158.071 35.056C158.071 35.376 158.129 35.6 158.247 35.728C158.375 35.856 158.599 35.92 158.919 35.92C159.239 35.92 159.543 35.8613 159.831 35.744C160.119 35.616 160.396 35.4293 160.663 35.184C160.94 34.9387 161.207 34.6347 161.463 34.272V36.544H160.791C160.599 36.896 160.375 37.1947 160.119 37.44C159.863 37.6747 159.564 37.856 159.223 37.984C158.892 38.1013 158.519 38.16 158.103 38.16ZM170.077 38C169.757 38 169.384 38 168.957 38C168.53 38 168.114 38 167.709 38C167.304 38 166.957 38 166.669 38C166.381 38 166.216 38 166.173 38C166.12 38 166.077 37.984 166.045 37.952C166.013 37.92 165.997 37.8773 165.997 37.824C165.997 36.96 165.997 36.1333 165.997 35.344C165.997 34.544 165.997 33.76 165.997 32.992C165.997 32.2133 165.997 31.4293 165.997 30.64C165.997 29.84 165.997 29.008 165.997 28.144H168.589L168.477 28.48C168.477 28.8 168.477 29.1093 168.477 29.408C168.477 29.7067 168.477 29.9947 168.477 30.272C168.477 30.7307 168.477 31.184 168.477 31.632C168.477 32.08 168.477 32.5333 168.477 32.992C168.477 33.44 168.477 33.904 168.477 34.384C168.477 34.864 168.477 35.3653 168.477 35.888C168.626 35.888 168.776 35.888 168.925 35.888C169.074 35.888 169.224 35.888 169.373 35.888C169.522 35.888 169.672 35.888 169.821 35.888C170.088 35.888 170.301 35.8507 170.461 35.776C170.632 35.6907 170.754 35.5733 170.829 35.424C170.914 35.2747 170.957 35.0987 170.957 34.896V34.384C170.957 34.1493 170.914 33.9573 170.829 33.808C170.754 33.648 170.632 33.536 170.461 33.472C170.301 33.3973 170.088 33.36 169.821 33.36H167.197L167.293 31.872H171.437V32.512C172.066 32.5973 172.557 32.8373 172.909 33.232C173.261 33.616 173.437 34.1547 173.437 34.848V35.296C173.437 35.9467 173.298 36.4693 173.021 36.864C172.744 37.2587 172.354 37.5467 171.853 37.728C171.352 37.9093 170.76 38 170.077 38ZM165.277 26.8C166.034 26.8 166.792 26.8 167.549 26.8C168.306 26.8 169.058 26.8 169.805 26.8C170.498 26.8 171.074 26.8747 171.533 27.024C172.002 27.1733 172.376 27.376 172.653 27.632C172.93 27.8773 173.128 28.16 173.245 28.48C173.373 28.7893 173.437 29.104 173.437 29.424V29.792C173.437 30.1973 173.362 30.5493 173.213 30.848C173.074 31.1467 172.872 31.3973 172.605 31.6C172.338 31.792 172.018 31.936 171.645 32.032C171.282 32.128 170.882 32.176 170.445 32.176C169.784 32.176 169.229 32.176 168.781 32.176C168.333 32.176 167.933 32.176 167.581 32.176L167.293 32.4L167.197 31.328C167.634 31.328 168.077 31.328 168.525 31.328C168.973 31.328 169.416 31.328 169.853 31.328C170.098 31.328 170.301 31.2907 170.461 31.216C170.632 31.1307 170.754 31.008 170.829 30.848C170.914 30.688 170.957 30.4907 170.957 30.256V29.872C170.957 29.7227 170.936 29.5893 170.893 29.472C170.861 29.3547 170.802 29.2587 170.717 29.184C170.621 29.088 170.498 29.0187 170.349 28.976C170.21 28.9333 170.04 28.912 169.837 28.912C169.357 28.912 168.872 28.912 168.381 28.912C167.89 28.912 167.4 28.912 166.909 28.912C166.429 28.912 165.944 28.912 165.453 28.912C165.4 28.912 165.357 28.896 165.325 28.864C165.293 28.832 165.277 28.7893 165.277 28.736C165.277 28.384 165.277 28.064 165.277 27.776C165.277 27.4773 165.277 27.152 165.277 26.8Z" fill="#181717"/>
</svg>
