<svg width="350" height="63" viewBox="0 0 350 63" fill="none" xmlns="http://www.w3.org/2000/svg">
<line y1="30.5" x2="38" y2="30.5" stroke="#211E1E" stroke-width="5"/>
<line x1="311.164" y1="30.405" x2="349.164" y2="30.405" stroke="#211E1E" stroke-width="5"/>
<path d="M137.035 30.951C136.977 30.951 136.92 30.9367 136.863 30.9081C136.805 30.8794 136.748 30.8507 136.691 30.8221C136.662 30.7648 136.633 30.7075 136.605 30.6501C136.576 30.5928 136.562 30.5355 136.562 30.4782C136.562 28.3001 136.562 26.1221 136.562 23.9441C136.562 21.766 136.562 19.588 136.562 17.41C136.562 15.2033 136.562 13.0109 136.562 10.8329C136.562 8.65483 136.562 6.47679 136.562 4.29876C136.562 3.72559 136.562 3.15242 136.562 2.57925C136.562 2.00609 136.562 1.43292 136.562 0.859749C137.651 0.859749 138.725 0.859749 139.786 0.859749C140.846 0.859749 141.907 0.859749 142.967 0.859749C143.053 0.859749 143.125 0.888407 143.182 0.945725C143.268 0.974383 143.325 1.0317 143.354 1.11768C143.411 1.17499 143.44 1.24664 143.44 1.33261C143.44 3.28138 143.44 5.25881 143.44 7.2649C143.44 9.24233 143.44 11.2341 143.44 13.2402C143.44 15.2463 143.44 17.2523 143.44 19.2584C143.44 21.2359 143.44 23.199 143.44 25.1477H149.845C150.705 25.1477 151.421 25.248 151.994 25.4486C152.596 25.6492 153.083 25.9788 153.456 26.4374C153.857 26.8959 154.172 27.4977 154.402 28.2428C154.66 28.9593 154.874 29.862 155.046 30.951H137.035ZM149.028 22.1386C149.687 22.1386 150.318 22.1386 150.92 22.1386C151.521 22.1386 152.109 22.1386 152.682 22.1386C153.284 22.1386 153.914 22.1386 154.574 22.1386C154.66 22.1386 154.731 22.1673 154.788 22.2246C154.874 22.2532 154.932 22.3105 154.96 22.3965C155.018 22.4538 155.046 22.5255 155.046 22.6115C155.046 23.156 155.046 23.7865 155.046 24.5029C155.046 25.2194 155.046 25.9788 155.046 26.7813C155.046 27.555 155.046 28.3145 155.046 29.0596C155.046 29.7761 155.046 30.4065 155.046 30.951C153.528 30.8078 152.324 30.5068 151.435 30.0483C150.547 29.5898 149.917 29.0023 149.544 28.2858C149.2 27.5407 149.028 26.6953 149.028 25.7495C149.028 25.377 149.028 24.9758 149.028 24.5459C149.028 24.116 149.028 23.6861 149.028 23.2563C149.028 22.8264 149.028 22.4538 149.028 22.1386Z" fill="#181717"/>
<path d="M111.999 18.9145H120.682C121.17 18.9145 121.643 18.9145 122.101 18.9145C122.588 18.9145 123.061 18.9145 123.52 18.9145L125.11 18.5276L125.798 21.5368L126.443 24.5029H112.386C112.3 24.5029 112.214 24.4886 112.128 24.4599C112.071 24.4026 112.013 24.3453 111.956 24.288C111.927 24.202 111.913 24.116 111.913 24.03L111.999 18.9145ZM113.504 30.951C112.501 30.951 111.483 30.951 110.451 30.951C109.448 30.951 108.445 30.951 107.442 30.951C107.385 30.951 107.328 30.9367 107.27 30.9081C107.213 30.8794 107.156 30.8221 107.098 30.7361C107.07 30.6501 107.07 30.5355 107.098 30.3922C107.242 29.7904 107.442 28.902 107.7 27.727C107.987 26.552 108.302 25.1907 108.646 23.6432C109.019 22.0956 109.405 20.4478 109.807 18.6996C110.236 16.9228 110.652 15.1603 111.053 13.4121C111.483 11.6353 111.884 9.93013 112.257 8.2966C112.629 6.66307 112.959 5.21582 113.246 3.95486C113.561 2.66523 113.804 1.63353 113.976 0.859749C115.782 0.859749 117.645 0.859749 119.565 0.859749C121.485 0.859749 123.204 0.859749 124.723 0.859749C124.838 0.859749 124.924 0.888407 124.981 0.945725C125.039 0.974383 125.082 1.01737 125.11 1.07469C125.168 1.132 125.21 1.21798 125.239 1.33261C125.583 2.85151 125.956 4.4707 126.357 6.19021C126.787 7.90971 127.217 9.74385 127.646 11.6926C128.105 13.6127 128.578 15.6331 129.065 17.7539C129.581 19.8746 130.097 22.0813 130.613 24.3739C130.842 25.4343 131.085 26.509 131.343 27.598C131.601 28.687 131.831 29.8047 132.031 30.951C131.143 30.951 130.168 30.951 129.108 30.951C128.048 30.951 127.059 30.951 126.142 30.951C125.97 30.951 125.827 30.9367 125.712 30.9081C125.626 30.8507 125.554 30.7648 125.497 30.6501C125.44 30.5355 125.382 30.3635 125.325 30.1343C124.637 27.3258 124.021 24.8038 123.477 22.5685C122.961 20.3045 122.488 18.284 122.058 16.5072C121.657 14.7304 121.313 13.1399 121.026 11.7356C120.768 10.3313 120.539 9.07037 120.339 7.9527C120.167 6.83502 120.023 5.81765 119.909 4.90058L121.8 6.01826H117.415L119.264 4.90058C119.149 5.81765 118.992 6.83502 118.791 7.9527C118.59 9.07037 118.332 10.3457 118.017 11.7786C117.731 13.2115 117.372 14.845 116.943 16.6792C116.513 18.5133 116.011 20.6054 115.438 22.9554C114.893 25.3053 114.249 27.9706 113.504 30.951Z" fill="#181717"/>
<path d="M92.0263 0C94.2044 0 96.1675 0.458534 97.9156 1.3756C99.6638 2.29267 101.054 3.65394 102.085 5.45942C103.117 7.23624 103.633 9.45726 103.633 12.1225V20.2042C103.633 22.6401 103.131 24.7322 102.128 26.4803C101.125 28.1998 99.7498 29.5181 98.0016 30.4352C96.2821 31.3523 94.2903 31.8108 92.0263 31.8108C89.8483 31.8108 87.8709 31.3523 86.094 30.4352C84.3459 29.5181 82.9559 28.1998 81.9242 26.4803C80.9212 24.7322 80.4197 22.6401 80.4197 20.2042V12.1225C80.4197 9.45726 80.9642 7.23624 82.0532 5.45942C83.1422 3.65394 84.5751 2.29267 86.352 1.3756C88.1288 0.458534 90.0202 0 92.0263 0ZM86.8678 19.6883C86.8678 21.3505 87.0541 22.5541 87.4266 23.2993C87.8279 24.0444 88.2148 24.5746 88.5873 24.8898C88.9599 25.1764 89.4614 25.42 90.0919 25.6206C90.7224 25.8212 91.4388 25.9215 92.2413 25.9215C93.2156 25.9215 94.0611 25.6922 94.7775 25.2337C95.5226 24.7752 96.1101 24.0874 96.54 23.1703C96.9699 22.2246 97.1848 21.0639 97.1848 19.6883V11.6066C97.1848 10.7469 97.1418 10.0304 97.0559 9.45726C96.9699 8.8841 96.8266 8.41123 96.626 8.03867C96.4254 7.63746 96.1675 7.29356 95.8522 7.00697C95.451 6.60576 94.9495 6.30484 94.3476 6.10423C93.7458 5.90362 93.0007 5.80332 92.1123 5.80332C90.9373 5.80332 89.9629 6.04692 89.1891 6.53411C88.4154 6.99264 87.8279 7.65179 87.4266 8.51154C87.0541 9.37129 86.8678 10.403 86.8678 11.6066V19.6883Z" fill="#181717"/>
<path d="M67.487 31.8108C65.3663 31.8108 63.5035 31.5385 61.8986 30.994C60.3224 30.4782 59.0041 29.7187 57.9437 28.7157C56.912 27.7127 56.1383 26.4803 55.6224 25.0188C55.1066 23.5285 54.8486 21.8377 54.8486 19.9462V11.3917C54.8486 9.70086 55.1066 8.16764 55.6224 6.79204C56.1669 5.38778 56.955 4.18412 57.9867 3.18108C59.0184 2.14938 60.2794 1.36127 61.7696 0.816763C63.2885 0.272254 65.008 0 66.9281 0C68.3897 0 69.708 0.143292 70.883 0.429875C72.058 0.687801 73.061 1.0317 73.8921 1.46158C74.7232 1.86279 75.3537 2.29267 75.7836 2.7512C75.8696 2.80852 75.9269 2.88017 75.9555 2.96614C75.9842 3.05212 75.9985 3.13809 75.9985 3.22407C76.0272 3.31004 76.0415 3.41035 76.0415 3.52498C76.0415 4.58534 76.0415 5.83198 76.0415 7.2649C76.0415 8.66916 76.0415 10.0018 76.0415 11.2627C75.1244 11.2627 74.193 11.2627 73.2473 11.2627C72.3302 11.2627 71.4132 11.2627 70.4961 11.2627C70.3528 11.2627 70.2382 11.2198 70.1522 11.1338C70.0662 11.0478 70.0232 10.9332 70.0232 10.7899C70.0232 10.3313 70.0232 9.85848 70.0232 9.37129C70.0232 8.8841 70.0232 8.32526 70.0232 7.69477C70.0232 7.06429 70.0232 6.30484 70.0232 5.41643L71.2269 7.17892C70.5678 6.77771 69.88 6.50545 69.1635 6.36216C68.4757 6.21887 67.6876 6.14722 66.7992 6.14722C65.7675 6.14722 64.8647 6.3335 64.091 6.70606C63.3458 7.07862 62.7583 7.66612 62.3285 8.46855C61.9273 9.24233 61.7266 10.2597 61.7266 11.5207V19.4304C61.7266 20.6627 61.8413 21.6944 62.0705 22.5255C62.2998 23.3566 62.658 24.0157 63.1452 24.5029C63.6324 24.9901 64.2486 25.334 64.9937 25.5346C65.7675 25.7066 66.6129 25.7925 67.53 25.7925C69.0775 25.7925 70.4531 25.6349 71.6568 25.3197C72.8604 24.9758 74.1357 24.3883 75.4827 23.5572H76.3424C76.3424 24.0157 76.3424 24.4599 76.3424 24.8898C76.3424 25.3197 76.3424 25.7496 76.3424 26.1794C76.3424 26.5806 76.3424 27.0105 76.3424 27.4691C76.3424 27.8989 76.3424 28.3575 76.3424 28.8447C76.3424 28.9879 76.3138 29.1169 76.2564 29.2315C76.2278 29.3462 76.1705 29.4465 76.0845 29.5325C75.7119 29.905 75.1101 30.2632 74.279 30.6071C73.4479 30.951 72.4449 31.2376 71.2699 31.4669C70.1235 31.6962 68.8626 31.8108 67.487 31.8108Z" fill="#181717"/>
<path d="M273.507 0.859749H294.528C294.672 0.859749 294.786 0.902737 294.872 0.988712C294.958 1.07469 295.001 1.18932 295.001 1.33261C295.001 2.307 295.001 3.19541 295.001 3.99784C295.001 4.77162 295.001 5.66003 295.001 6.66307H273.98C273.894 6.66307 273.808 6.64874 273.722 6.62008C273.665 6.56277 273.608 6.50545 273.55 6.44813C273.522 6.36216 273.507 6.27618 273.507 6.19021C273.507 5.18716 273.507 4.29876 273.507 3.52498C273.507 2.72254 273.507 1.83413 273.507 0.859749ZM287.693 30.951C286.633 30.951 285.573 30.951 284.512 30.951C283.452 30.951 282.377 30.951 281.288 30.951C281.145 30.951 281.03 30.9081 280.944 30.8221C280.858 30.7361 280.815 30.6215 280.815 30.4782C280.815 28.1855 280.815 25.9645 280.815 23.8151C280.815 21.6371 280.815 19.4734 280.815 17.324C280.815 15.1746 280.815 13.0109 280.815 10.8329C280.815 8.65483 280.815 6.4338 280.815 4.16979H288.209L287.693 5.45942C287.693 6.00393 287.693 6.5771 287.693 7.17892C287.693 7.78075 287.693 8.36824 287.693 8.94141C287.693 9.48592 287.693 10.0161 287.693 10.532C287.693 12.3374 287.693 14.0999 287.693 15.8194C287.693 17.5389 287.693 19.2871 287.693 21.0639C287.693 22.8407 287.693 24.7322 287.693 26.7383C287.693 27.512 287.693 28.2572 287.693 28.9736C287.693 29.6901 287.693 30.3492 287.693 30.951Z" fill="#181717"/>
<path d="M260.726 0C262.76 0 264.48 0.243597 265.884 0.73079C267.317 1.21798 268.363 1.79115 269.022 2.45029C269.137 2.56492 269.209 2.67956 269.237 2.79419C269.266 2.90882 269.28 3.05212 269.28 3.22407C269.28 3.76858 269.28 4.39906 269.28 5.11552C269.28 5.80332 269.28 6.50545 269.28 7.22191C269.28 7.90971 269.28 8.58319 269.28 9.24233C268.363 9.24233 267.417 9.24233 266.443 9.24233C265.497 9.24233 264.566 9.24233 263.649 9.24233C263.505 9.24233 263.391 9.19934 263.305 9.11336C263.219 9.02739 263.176 8.91275 263.176 8.76946C263.176 8.54019 263.176 8.2966 263.176 8.03867C263.176 7.78075 263.176 7.50849 263.176 7.22191C263.176 6.90667 263.176 6.5771 263.176 6.23319C263.176 5.86064 263.176 5.44509 263.176 4.98656L264.38 6.40515C263.72 6.17588 263.119 6.01826 262.574 5.93228C262.03 5.84631 261.413 5.80332 260.726 5.80332C259.952 5.80332 259.278 5.86064 258.705 5.97527C258.132 6.06125 257.645 6.21887 257.244 6.44813C256.871 6.6774 256.584 6.97831 256.384 7.35087C256.183 7.69477 256.083 8.12465 256.083 8.6405V9.54324C256.083 10.0591 256.155 10.489 256.298 10.8329C256.47 11.1768 256.785 11.4777 257.244 11.7356C257.731 11.9935 258.447 12.2658 259.393 12.5524L263.477 13.799C264.824 14.2002 265.941 14.6444 266.83 15.1316C267.718 15.6188 268.42 16.1777 268.936 16.8081C269.452 17.41 269.81 18.1121 270.011 18.9145C270.24 19.6883 270.355 20.5767 270.355 21.5798V23.6432C270.355 25.334 269.896 26.7956 268.979 28.0279C268.062 29.2602 266.744 30.2059 265.024 30.8651C263.334 31.4956 261.284 31.8108 258.877 31.8108C257.502 31.8108 256.198 31.7248 254.965 31.5529C253.762 31.3809 252.701 31.123 251.784 30.7791C250.896 30.4352 250.208 30.034 249.721 29.5754C249.635 29.4895 249.563 29.4035 249.506 29.3175C249.477 29.2029 249.463 29.0023 249.463 28.7157C249.463 28.1712 249.463 27.6267 249.463 27.0822C249.463 26.5377 249.463 25.9645 249.463 25.3627C249.463 24.7608 249.463 24.1303 249.463 23.4712H250.323C251.612 24.3023 252.959 24.9328 254.363 25.3627C255.768 25.7639 257.43 25.9645 259.35 25.9645C261.041 25.9645 262.245 25.7209 262.961 25.2337C263.677 24.7178 264.036 24.159 264.036 23.5572V21.9666C264.036 21.5654 263.964 21.2215 263.821 20.9349C263.706 20.6484 263.42 20.3761 262.961 20.1182C262.531 19.8316 261.815 19.545 260.812 19.2584L256.771 18.0118C255.338 17.5819 254.163 17.0804 253.246 16.5072C252.329 15.9341 251.612 15.3322 251.096 14.7017C250.609 14.0426 250.265 13.3548 250.065 12.6383C249.864 11.8932 249.764 11.1338 249.764 10.36V8.16764C249.764 6.99264 250.007 5.91795 250.495 4.94357C251.01 3.94053 251.741 3.06645 252.687 2.32133C253.661 1.57621 254.822 1.00304 256.169 0.601826C257.516 0.200609 259.035 0 260.726 0Z" fill="#181717"/>
<path d="M225.33 18.9145H234.014C234.501 18.9145 234.974 18.9145 235.432 18.9145C235.919 18.9145 236.392 18.9145 236.851 18.9145L238.441 18.5276L239.129 21.5368L239.774 24.5029H225.717C225.631 24.5029 225.545 24.4886 225.459 24.4599C225.402 24.4026 225.344 24.3453 225.287 24.288C225.258 24.202 225.244 24.116 225.244 24.03L225.33 18.9145ZM226.835 30.951C225.832 30.951 224.814 30.951 223.782 30.951C222.779 30.951 221.776 30.951 220.773 30.951C220.716 30.951 220.659 30.9367 220.601 30.9081C220.544 30.8794 220.487 30.8221 220.429 30.7361C220.401 30.6501 220.401 30.5355 220.429 30.3922C220.573 29.7904 220.773 28.902 221.031 27.727C221.318 26.552 221.633 25.1907 221.977 23.6432C222.35 22.0956 222.736 20.4478 223.138 18.6996C223.568 16.9228 223.983 15.1603 224.384 13.4121C224.814 11.6353 225.215 9.93013 225.588 8.2966C225.961 6.66307 226.29 5.21582 226.577 3.95486C226.892 2.66523 227.136 1.63353 227.307 0.859749C229.113 0.859749 230.976 0.859749 232.896 0.859749C234.816 0.859749 236.535 0.859749 238.054 0.859749C238.169 0.859749 238.255 0.888407 238.312 0.945725C238.37 0.974383 238.413 1.01737 238.441 1.07469C238.499 1.132 238.542 1.21798 238.57 1.33261C238.914 2.85151 239.287 4.4707 239.688 6.19021C240.118 7.90971 240.548 9.74385 240.978 11.6926C241.436 13.6127 241.909 15.6331 242.396 17.7539C242.912 19.8746 243.428 22.0813 243.944 24.3739C244.173 25.4343 244.417 26.509 244.674 27.598C244.932 28.687 245.162 29.8047 245.362 30.951C244.474 30.951 243.499 30.951 242.439 30.951C241.379 30.951 240.39 30.951 239.473 30.951C239.301 30.951 239.158 30.9367 239.043 30.9081C238.957 30.8507 238.885 30.7648 238.828 30.6501C238.771 30.5355 238.713 30.3635 238.656 30.1343C237.968 27.3258 237.352 24.8038 236.808 22.5685C236.292 20.3045 235.819 18.284 235.389 16.5072C234.988 14.7304 234.644 13.1399 234.357 11.7356C234.099 10.3313 233.87 9.07037 233.67 7.9527C233.498 6.83502 233.354 5.81765 233.24 4.90058L235.131 6.01826H230.746L232.595 4.90058C232.48 5.81765 232.323 6.83502 232.122 7.9527C231.921 9.07037 231.664 10.3457 231.348 11.7786C231.062 13.2115 230.703 14.845 230.274 16.6792C229.844 18.5133 229.342 20.6054 228.769 22.9554C228.225 25.3053 227.58 27.9706 226.835 30.951Z" fill="#181717"/>
<path d="M205.357 0C207.535 0 209.498 0.458534 211.246 1.3756C212.995 2.29267 214.385 3.65394 215.416 5.45942C216.448 7.23624 216.964 9.45726 216.964 12.1225V20.2042C216.964 22.6401 216.462 24.7322 215.459 26.4803C214.456 28.1998 213.081 29.5181 211.332 30.4352C209.613 31.3523 207.621 31.8108 205.357 31.8108C203.179 31.8108 201.202 31.3523 199.425 30.4352C197.677 29.5181 196.287 28.1998 195.255 26.4803C194.252 24.7322 193.75 22.6401 193.75 20.2042V12.1225C193.75 9.45726 194.295 7.23624 195.384 5.45942C196.473 3.65394 197.906 2.29267 199.683 1.3756C201.46 0.458534 203.351 0 205.357 0ZM200.199 19.6883C200.199 21.3505 200.385 22.5541 200.757 23.2993C201.159 24.0444 201.546 24.5746 201.918 24.8898C202.291 25.1764 202.792 25.42 203.423 25.6206C204.053 25.8212 204.77 25.9215 205.572 25.9215C206.546 25.9215 207.392 25.6922 208.108 25.2337C208.853 24.7752 209.441 24.0874 209.871 23.1703C210.301 22.2246 210.516 21.0639 210.516 19.6883V11.6066C210.516 10.7469 210.473 10.0304 210.387 9.45726C210.301 8.8841 210.157 8.41123 209.957 8.03867C209.756 7.63746 209.498 7.29356 209.183 7.00697C208.782 6.60576 208.28 6.30484 207.678 6.10423C207.077 5.90362 206.332 5.80332 205.443 5.80332C204.268 5.80332 203.294 6.04692 202.52 6.53411C201.746 6.99264 201.159 7.65179 200.757 8.51154C200.385 9.37129 200.199 10.403 200.199 11.6066V19.6883Z" fill="#181717"/>
<path d="M180.818 31.8108C178.697 31.8108 176.834 31.5385 175.229 30.994C173.653 30.4782 172.335 29.7187 171.275 28.7157C170.243 27.7127 169.469 26.4803 168.953 25.0188C168.437 23.5285 168.179 21.8377 168.179 19.9462V11.3917C168.179 9.70086 168.437 8.16764 168.953 6.79204C169.498 5.38778 170.286 4.18412 171.318 3.18108C172.349 2.14938 173.61 1.36127 175.1 0.816763C176.619 0.272254 178.339 0 180.259 0C181.721 0 183.039 0.143292 184.214 0.429875C185.389 0.687801 186.392 1.0317 187.223 1.46158C188.054 1.86279 188.685 2.29267 189.114 2.7512C189.2 2.80852 189.258 2.88017 189.286 2.96614C189.315 3.05212 189.329 3.13809 189.329 3.22407C189.358 3.31004 189.372 3.41035 189.372 3.52498C189.372 4.58534 189.372 5.83198 189.372 7.2649C189.372 8.66916 189.372 10.0018 189.372 11.2627C188.455 11.2627 187.524 11.2627 186.578 11.2627C185.661 11.2627 184.744 11.2627 183.827 11.2627C183.684 11.2627 183.569 11.2198 183.483 11.1338C183.397 11.0478 183.354 10.9332 183.354 10.7899C183.354 10.3313 183.354 9.85848 183.354 9.37129C183.354 8.8841 183.354 8.32526 183.354 7.69477C183.354 7.06429 183.354 6.30484 183.354 5.41643L184.558 7.17892C183.899 6.77771 183.211 6.50545 182.494 6.36216C181.807 6.21887 181.018 6.14722 180.13 6.14722C179.098 6.14722 178.196 6.3335 177.422 6.70606C176.677 7.07862 176.089 7.66612 175.659 8.46855C175.258 9.24233 175.057 10.2597 175.057 11.5207V19.4304C175.057 20.6627 175.172 21.6944 175.401 22.5255C175.631 23.3566 175.989 24.0157 176.476 24.5029C176.963 24.9901 177.579 25.334 178.325 25.5346C179.098 25.7066 179.944 25.7925 180.861 25.7925C182.408 25.7925 183.784 25.6349 184.988 25.3197C186.191 24.9758 187.467 24.3883 188.813 23.5572H189.673C189.673 24.0157 189.673 24.4599 189.673 24.8898C189.673 25.3197 189.673 25.7496 189.673 26.1794C189.673 26.5806 189.673 27.0105 189.673 27.4691C189.673 27.8989 189.673 28.3575 189.673 28.8447C189.673 28.9879 189.645 29.1169 189.587 29.2315C189.559 29.3462 189.501 29.4465 189.415 29.5325C189.043 29.905 188.441 30.2632 187.61 30.6071C186.779 30.951 185.776 31.2376 184.601 31.4669C183.454 31.6962 182.193 31.8108 180.818 31.8108Z" fill="#181717"/>
<path d="M204.186 52.2729C204.707 53.1899 205.176 54.0236 205.592 54.774C206.03 55.5243 206.499 56.358 206.999 57.2751C207.166 57.546 207.312 57.7336 207.437 57.8378C207.583 57.942 207.76 57.9941 207.968 57.9941C208.052 57.9941 208.114 57.9941 208.156 57.9941C208.219 57.9941 208.292 57.9941 208.375 57.9941H209C209 58.7028 209 59.3489 209 59.9325C209 60.5161 209 61.1622 209 61.8708C209 61.975 208.969 62.0584 208.906 62.1209C208.844 62.1835 208.76 62.2147 208.656 62.2147C208.51 62.2147 208.302 62.2147 208.031 62.2147C207.781 62.2147 207.552 62.2147 207.343 62.2147C206.593 62.2147 205.968 62.1626 205.467 62.0584C204.967 61.9542 204.54 61.7562 204.186 61.4644C203.831 61.1726 203.508 60.7453 203.216 60.1826C202.695 59.1613 202.174 58.14 201.653 57.1187C201.153 56.0975 200.632 55.0762 200.09 54.0549L204.186 52.2729ZM192.43 40.3301C193.848 40.3301 195.275 40.3301 196.714 40.3301C198.152 40.3301 199.579 40.3301 200.997 40.3301C202.31 40.3301 203.425 40.4865 204.342 40.7991C205.259 41.0909 205.999 41.5286 206.562 42.1122C207.145 42.6958 207.562 43.394 207.812 44.2068C208.083 44.9989 208.219 45.8951 208.219 46.8955V48.7401C208.219 49.6988 208.073 50.5638 207.781 51.335C207.489 52.1061 207.062 52.7627 206.499 53.3046C205.936 53.8256 205.259 54.2321 204.467 54.5239C203.675 54.7948 202.779 54.9303 201.778 54.9303C201.195 54.9303 200.601 54.9303 199.996 54.9303C199.413 54.9303 198.829 54.9303 198.245 54.9303L197.902 55.0866V50.866C198.443 50.866 198.985 50.866 199.527 50.866C200.09 50.866 200.642 50.866 201.184 50.866C201.684 50.866 202.091 50.7931 202.404 50.6472C202.737 50.5013 202.977 50.272 203.123 49.9594C203.289 49.6467 203.373 49.2611 203.373 48.8026V46.6141C203.373 46.2598 203.331 45.9576 203.248 45.7075C203.164 45.4574 203.039 45.249 202.872 45.0822C202.706 44.9155 202.476 44.7904 202.185 44.7071C201.914 44.6029 201.58 44.5507 201.184 44.5507C200.267 44.5507 199.329 44.5507 198.371 44.5507C197.433 44.5507 196.495 44.5507 195.557 44.5507C194.64 44.5507 193.712 44.5507 192.774 44.5507C192.67 44.5507 192.587 44.5195 192.524 44.457C192.462 44.3944 192.43 44.3111 192.43 44.2068C192.43 43.519 192.43 42.8729 192.43 42.2685C192.43 41.6641 192.43 41.0179 192.43 40.3301ZM198.683 62.2147C197.912 62.2147 197.162 62.2147 196.432 62.2147C195.724 62.2147 194.973 62.2147 194.181 62.2147C194.077 62.2147 193.994 62.1835 193.931 62.1209C193.869 62.0584 193.837 61.975 193.837 61.8708C193.837 60.2034 193.837 58.5986 193.837 57.0562C193.837 55.493 193.837 53.9507 193.837 52.4292C193.837 50.8869 193.837 49.3341 193.837 47.7709C193.837 46.2077 193.837 44.6029 193.837 42.9563H199.058L198.683 43.8942C198.683 44.4986 198.683 45.0926 198.683 45.6762C198.683 46.2598 198.683 46.8226 198.683 47.3645C198.683 48.6776 198.683 49.9594 198.683 51.2099C198.683 52.4605 198.683 53.7318 198.683 55.0241C198.683 56.3163 198.683 57.6919 198.683 59.1509C198.683 59.7136 198.683 60.2555 198.683 60.7766C198.683 61.2977 198.683 61.777 198.683 62.2147Z" fill="#181717"/>
<path d="M175.242 40.3301H189.592C189.654 40.3301 189.706 40.351 189.748 40.3927C189.811 40.4135 189.852 40.4552 189.873 40.5177C189.915 40.5594 189.936 40.6115 189.936 40.674C189.936 41.3827 189.936 42.0288 189.936 42.6124C189.936 43.1751 189.936 43.8213 189.936 44.5507H175.586C175.523 44.5507 175.461 44.5403 175.398 44.5195C175.356 44.4778 175.315 44.4361 175.273 44.3944C175.252 44.3319 175.242 44.2694 175.242 44.2068C175.242 43.4774 175.242 42.8312 175.242 42.2685C175.242 41.6849 175.242 41.0388 175.242 40.3301ZM179.806 49.209H187.716C187.778 49.209 187.831 49.2299 187.872 49.2716C187.935 49.2924 187.976 49.3341 187.997 49.3966C188.039 49.4383 188.06 49.4904 188.06 49.5529C188.06 50.0323 188.06 50.4804 188.06 50.8973C188.06 51.3141 188.06 51.7101 188.06 52.0853C188.06 52.4605 188.06 52.8565 188.06 53.2733H179.806V49.209ZM176.992 62.2147C176.951 62.2147 176.909 62.2043 176.867 62.1835C176.826 62.1626 176.784 62.1418 176.742 62.1209C176.722 62.0792 176.701 62.0376 176.68 61.9959C176.659 61.9542 176.649 61.9125 176.649 61.8708C176.649 61.454 176.649 60.7453 176.649 59.7449C176.649 58.7236 176.649 57.5252 176.649 56.1496C176.649 54.7531 176.649 53.2837 176.649 51.7414C176.649 50.1782 176.649 48.6359 176.649 47.1144C176.649 45.5929 176.649 44.2068 176.649 42.9563H181.901L181.651 43.7066C181.651 44.2068 181.651 44.7175 181.651 45.2385C181.651 45.7388 181.651 46.239 181.651 46.7392C181.651 47.6563 181.651 48.5942 181.651 49.5529C181.651 50.4908 181.651 51.4392 181.651 52.3979C181.651 53.3358 181.651 54.2738 181.651 55.2117C181.651 56.1496 181.651 57.0771 181.651 57.9941H189.592C189.696 57.9941 189.779 58.0254 189.842 58.0879C189.904 58.1504 189.936 58.2338 189.936 58.338C189.936 59.0258 189.936 59.6719 189.936 60.2764C189.936 60.8808 189.936 61.5269 189.936 62.2147H176.992Z" fill="#181717"/>
<path d="M157.121 40.3301H172.409C172.513 40.3301 172.597 40.3614 172.659 40.4239C172.722 40.4865 172.753 40.5698 172.753 40.674C172.753 41.3827 172.753 42.0288 172.753 42.6124C172.753 43.1751 172.753 43.8213 172.753 44.5507H157.465C157.402 44.5507 157.34 44.5403 157.277 44.5195C157.236 44.4778 157.194 44.4361 157.152 44.3944C157.132 44.3319 157.121 44.2694 157.121 44.2068C157.121 43.4774 157.121 42.8312 157.121 42.2685C157.121 41.6849 157.121 41.0388 157.121 40.3301ZM167.438 62.2147C166.667 62.2147 165.896 62.2147 165.125 62.2147C164.353 62.2147 163.572 62.2147 162.78 62.2147C162.676 62.2147 162.592 62.1835 162.53 62.1209C162.467 62.0584 162.436 61.975 162.436 61.8708C162.436 60.2034 162.436 58.5881 162.436 57.025C162.436 55.4409 162.436 53.8673 162.436 52.3041C162.436 50.741 162.436 49.1673 162.436 47.5833C162.436 45.9993 162.436 44.384 162.436 42.7375H167.813L167.438 43.6754C167.438 44.0714 167.438 44.4882 167.438 44.9259C167.438 45.3636 167.438 45.7909 167.438 46.2077C167.438 46.6037 167.438 46.9893 167.438 47.3645C167.438 48.6776 167.438 49.9594 167.438 51.2099C167.438 52.4605 167.438 53.7318 167.438 55.0241C167.438 56.3163 167.438 57.6919 167.438 59.1509C167.438 59.7136 167.438 60.2555 167.438 60.7766C167.438 61.2977 167.438 61.777 167.438 62.2147Z" fill="#181717"/>
<path d="M153.357 62.2147C152.836 62.2147 152.315 62.2147 151.794 62.2147C151.294 62.2147 150.783 62.2147 150.262 62.2147C149.741 62.2147 149.22 62.2147 148.699 62.2147C148.657 62.2147 148.616 62.2147 148.574 62.2147C148.532 62.1939 148.501 62.173 148.48 62.1522C148.459 62.1314 148.438 62.1105 148.418 62.0897C148.397 62.0688 148.376 62.0376 148.355 61.9959C148.355 61.9542 148.355 61.9125 148.355 61.8708C148.355 60.0784 148.355 58.2859 148.355 56.4935C148.355 54.701 148.355 52.9086 148.355 51.1161C148.355 49.3028 148.355 47.5 148.355 45.7075C148.355 43.9151 148.355 42.1226 148.355 40.3301C148.876 40.3301 149.387 40.3301 149.887 40.3301C150.408 40.3301 150.929 40.3301 151.45 40.3301C151.971 40.3301 152.492 40.3301 153.013 40.3301C153.076 40.3301 153.128 40.351 153.17 40.3927C153.232 40.4135 153.274 40.4552 153.295 40.5177C153.336 40.5594 153.357 40.6115 153.357 40.674C153.357 42.1747 153.357 43.6858 153.357 45.2073C153.357 46.7079 153.357 48.219 153.357 49.7405C153.357 51.2412 153.357 52.7523 153.357 54.2738C153.357 55.7744 153.357 57.2751 153.357 58.7757C153.357 59.401 153.357 60.0054 153.357 60.589C153.357 61.1726 153.357 61.7145 153.357 62.2147ZM142.478 62.5274C141.581 62.5274 140.81 62.4023 140.164 62.1522C139.539 61.9021 139.018 61.5373 138.601 61.058C138.205 60.5578 137.903 59.9533 137.694 59.2447C137.507 58.536 137.413 57.7128 137.413 56.7748C137.413 55.3992 137.413 53.982 137.413 52.523C137.413 51.064 137.413 49.5738 137.413 48.0523C137.413 46.5099 137.413 44.978 137.413 43.4565C137.413 42.9355 137.413 42.4144 137.413 41.8933C137.413 41.3723 137.413 40.8512 137.413 40.3301C138.205 40.3301 138.986 40.3301 139.758 40.3301C140.529 40.3301 141.3 40.3301 142.071 40.3301C142.155 40.3301 142.217 40.351 142.259 40.3927C142.3 40.4135 142.332 40.4448 142.353 40.4865C142.394 40.5282 142.415 40.5907 142.415 40.674C142.415 42.404 142.415 44.1756 142.415 45.9889C142.415 47.8022 142.415 49.605 142.415 51.3975C142.415 53.1691 142.415 54.8573 142.415 56.4622C142.415 57.0875 142.53 57.5252 142.759 57.7753C143.009 58.0254 143.447 58.1504 144.072 58.1504C144.697 58.1504 145.291 58.0358 145.854 57.8065C146.417 57.5564 146.959 57.1917 147.48 56.7123C148.022 56.2329 148.543 55.6389 149.043 54.9303V59.3697H147.73C147.355 60.0575 146.917 60.6411 146.417 61.1205C145.917 61.579 145.333 61.9334 144.666 62.1835C144.02 62.4127 143.29 62.5274 142.478 62.5274Z" fill="#181717"/>
<path d="M123.825 62.2147C123.054 62.2147 122.283 62.2147 121.512 62.2147C120.74 62.2147 119.959 62.2147 119.167 62.2147C119.063 62.2147 118.979 62.1835 118.917 62.1209C118.854 62.0584 118.823 61.975 118.823 61.8708C118.823 60.2034 118.823 58.5986 118.823 57.0562C118.823 55.493 118.823 53.9507 118.823 52.4292C118.823 50.8869 118.823 49.3341 118.823 47.7709C118.823 46.2077 118.823 44.6029 118.823 42.9563H124.2L123.825 43.8942C123.825 44.4986 123.825 45.051 123.825 45.5512C123.825 46.0514 123.825 46.5725 123.825 47.1144C123.825 48.4274 123.825 49.7301 123.825 51.0223C123.825 52.3146 123.825 53.6276 123.825 54.9616C123.825 56.2955 123.825 57.6919 123.825 59.1509C123.825 59.7136 123.825 60.2555 123.825 60.7766C123.825 61.2977 123.825 61.777 123.825 62.2147ZM117.416 40.3301C118.833 40.3301 120.334 40.3301 121.918 40.3301C123.523 40.3301 124.951 40.3301 126.201 40.3301C127.264 40.3301 128.202 40.4344 129.015 40.6428C129.828 40.8512 130.515 41.1534 131.078 41.5494C131.662 41.9246 132.131 42.3936 132.485 42.9563C132.839 43.4982 133.1 44.1235 133.267 44.8321C133.433 45.5199 133.517 46.2807 133.517 47.1144V48.9902C133.517 50.0532 133.381 51.0119 133.11 51.8664C132.86 52.7001 132.443 53.4088 131.86 53.9924C131.297 54.576 130.547 55.0241 129.609 55.3367C128.671 55.6494 127.535 55.8057 126.201 55.8057C125.722 55.8057 125.232 55.8057 124.732 55.8057C124.231 55.8057 123.731 55.8057 123.231 55.8057L122.887 55.9307V51.5851C123.512 51.5851 124.117 51.5851 124.7 51.5851C125.305 51.5851 125.805 51.5851 126.201 51.5851C126.597 51.5851 126.941 51.5434 127.233 51.46C127.525 51.3766 127.764 51.2516 127.952 51.0849C128.139 50.8973 128.275 50.6576 128.358 50.3658C128.463 50.0532 128.515 49.6676 128.515 49.209V46.8955C128.515 46.437 128.473 46.0618 128.39 45.77C128.306 45.4574 128.171 45.2073 127.983 45.0197C127.796 44.8321 127.556 44.7071 127.264 44.6445C126.993 44.5612 126.649 44.5195 126.232 44.5195C125.315 44.5195 124.377 44.5195 123.419 44.5195C122.46 44.5195 121.501 44.5195 120.542 44.5195C119.584 44.5195 118.656 44.5195 117.76 44.5195C117.656 44.5195 117.572 44.4882 117.51 44.4257C117.447 44.3632 117.416 44.2798 117.416 44.1756C117.416 43.4878 117.416 42.8521 117.416 42.2685C117.416 41.6641 117.416 41.0179 117.416 40.3301Z" fill="#181717"/>
<path d="M98.3514 62.2147C97.6428 62.2147 96.9237 62.2147 96.1942 62.2147C95.4647 62.2147 94.7352 62.2147 94.0058 62.2147C93.9432 62.2147 93.8807 62.2043 93.8182 62.1835C93.7765 62.1418 93.7348 62.1001 93.6931 62.0584C93.6723 61.9959 93.6619 61.9334 93.6619 61.8708C93.6619 60.3285 93.6619 58.7966 93.6619 57.2751C93.6619 55.7327 93.6619 54.2008 93.6619 52.6793C93.6619 51.137 93.6619 49.5946 93.6619 48.0523C93.6619 46.5099 93.6619 44.978 93.6619 43.4565C93.6619 42.9355 93.6619 42.4144 93.6619 41.8933C93.6619 41.3723 93.6619 40.8512 93.6619 40.3301C94.1412 40.3301 94.7457 40.3301 95.4752 40.3301C96.2046 40.3301 96.9133 40.3301 97.6011 40.3301C98.3097 40.3301 98.8725 40.3301 99.2893 40.3301C99.4352 40.3301 99.5499 40.351 99.6332 40.3927C99.7166 40.4344 99.7895 40.5073 99.8521 40.6115C99.9354 40.7157 100.019 40.8825 100.102 41.1117C100.415 41.8621 100.707 42.602 100.978 43.3315C101.269 44.0401 101.551 44.7487 101.822 45.4574C102.093 46.1452 102.353 46.8538 102.603 47.5833C102.874 48.292 103.145 49.0215 103.416 49.7718C103.687 50.5221 103.958 51.3141 104.229 52.1478L102.885 50.8035H105.167L103.791 52.1478C104.062 51.3141 104.323 50.5221 104.573 49.7718C104.844 49.0006 105.104 48.2503 105.354 47.5208C105.625 46.7913 105.896 46.0514 106.167 45.3011C106.438 44.5507 106.72 43.7692 107.011 42.9563C107.324 42.1226 107.658 41.2472 108.012 40.3301C108.491 40.3301 109.106 40.3301 109.856 40.3301C110.607 40.3301 111.357 40.3301 112.107 40.3301C112.858 40.3301 113.473 40.3301 113.952 40.3301C114.015 40.3301 114.067 40.351 114.108 40.3927C114.171 40.4135 114.213 40.4552 114.233 40.5177C114.275 40.5594 114.296 40.6115 114.296 40.674C114.296 41.6953 114.296 42.7166 114.296 43.7379C114.296 44.7592 114.296 45.7804 114.296 46.8017C114.296 47.823 114.296 48.8547 114.296 49.8968C114.296 50.9181 114.296 51.9394 114.296 52.9607C114.296 53.982 114.296 55.0137 114.296 56.0558C114.296 57.0771 114.296 58.0983 114.296 59.1196C114.296 59.4531 114.296 59.797 114.296 60.1513C114.296 60.4848 114.296 60.8287 114.296 61.183C114.296 61.5165 114.296 61.8604 114.296 62.2147C113.587 62.2147 112.868 62.2147 112.139 62.2147C111.409 62.2147 110.68 62.2147 109.95 62.2147C109.888 62.2147 109.825 62.2043 109.763 62.1835C109.721 62.1418 109.679 62.1001 109.638 62.0584C109.617 61.9959 109.606 61.9334 109.606 61.8708C109.606 61.4331 109.606 61.0059 109.606 60.589C109.606 60.1722 109.606 59.7553 109.606 59.3385C109.606 58.9008 109.606 58.4735 109.606 58.0567C109.606 57.4939 109.606 56.9416 109.606 56.3997C109.627 55.8578 109.648 55.3159 109.669 54.774C109.69 54.2112 109.721 53.6381 109.763 53.0545C109.804 52.4709 109.856 51.856 109.919 51.2099C110.002 50.5638 110.086 49.8656 110.169 49.1152C110.252 48.3649 110.357 47.5625 110.482 46.7079L111.076 47.6458H108.793L110.107 46.7705C109.836 47.5 109.554 48.2399 109.262 48.9902C108.971 49.7405 108.679 50.4908 108.387 51.2412C108.095 51.9915 107.803 52.7523 107.512 53.5234C107.22 54.2738 106.928 55.0241 106.636 55.7744C106.344 56.5247 106.063 57.2646 105.792 57.9941C105.229 57.9941 104.667 57.9941 104.104 57.9941C103.541 57.9941 102.978 57.9941 102.416 57.9941C102.353 57.9941 102.28 57.9837 102.197 57.9629C102.134 57.9212 102.082 57.8482 102.041 57.744C101.77 57.0354 101.488 56.3163 101.196 55.5868C100.905 54.8573 100.613 54.1174 100.321 53.3671C100.05 52.6168 99.7687 51.8769 99.4769 51.1474C99.1851 50.3971 98.8933 49.6571 98.6015 48.9277C98.3306 48.1982 98.0596 47.4791 97.7887 46.7705L99.0705 47.6458H96.8195L97.4135 46.7079C97.5386 47.5416 97.6532 48.3336 97.7574 49.084C97.8616 49.8135 97.945 50.5013 98.0075 51.1474C98.07 51.7727 98.1221 52.3875 98.1638 52.9919C98.2264 53.5755 98.268 54.1487 98.2889 54.7114C98.3097 55.2533 98.3202 55.8057 98.3202 56.3684C98.341 56.9103 98.3514 57.4731 98.3514 58.0567C98.3514 58.7445 98.3514 59.4427 98.3514 60.1513C98.3514 60.8391 98.3514 61.5269 98.3514 62.2147Z" fill="#181717"/>
<path d="M81.3006 39.7049C82.8846 39.7049 84.3123 40.0384 85.5837 40.7053C86.8551 41.3723 87.8659 42.3623 88.6163 43.6754C89.3666 44.9676 89.7418 46.5829 89.7418 48.5212V54.3988C89.7418 56.1704 89.377 57.6919 88.6475 58.9633C87.918 60.2139 86.9176 61.1726 85.6462 61.8396C84.3957 62.5065 82.9471 62.84 81.3006 62.84C79.7165 62.84 78.2784 62.5065 76.9862 61.8396C75.7148 61.1726 74.7039 60.2139 73.9536 58.9633C73.2241 57.6919 72.8594 56.1704 72.8594 54.3988V48.5212C72.8594 46.5829 73.2554 44.9676 74.0474 43.6754C74.8394 42.3623 75.8815 41.3723 77.1738 40.7053C78.466 40.0384 79.8416 39.7049 81.3006 39.7049ZM77.5489 54.0236C77.5489 55.2325 77.6844 56.1079 77.9554 56.6498C78.2471 57.1917 78.5285 57.5773 78.7995 57.8065C79.0704 58.015 79.4352 58.1921 79.8937 58.338C80.3522 58.4839 80.8733 58.5569 81.4569 58.5569C82.1655 58.5569 82.7804 58.3901 83.3014 58.0567C83.8433 57.7232 84.2706 57.223 84.5833 56.556C84.8959 55.8682 85.0522 55.0241 85.0522 54.0236V48.1461C85.0522 47.5208 85.0209 46.9997 84.9584 46.5829C84.8959 46.166 84.7917 45.8221 84.6458 45.5512C84.4999 45.2594 84.3123 45.0093 84.083 44.8009C83.7912 44.5091 83.4265 44.2902 82.9888 44.1443C82.5511 43.9984 82.0092 43.9255 81.3631 43.9255C80.5086 43.9255 79.7999 44.1026 79.2372 44.457C78.6744 44.7904 78.2471 45.2698 77.9554 45.8951C77.6844 46.5204 77.5489 47.2707 77.5489 48.1461V54.0236Z" fill="#181717"/>
<path d="M63.4537 62.84C61.9114 62.84 60.5566 62.642 59.3895 62.246C58.2431 61.8708 57.2844 61.3185 56.5132 60.589C55.7629 59.8595 55.2001 58.9633 54.825 57.9003C54.4498 56.8165 54.2622 55.5868 54.2622 54.2112V47.9898C54.2622 46.76 54.4498 45.645 54.825 44.6445C55.221 43.6233 55.7941 42.7479 56.5445 42.0184C57.2948 41.2681 58.2119 40.6949 59.2957 40.2989C60.4003 39.9029 61.6509 39.7049 63.0473 39.7049C64.1103 39.7049 65.069 39.8091 65.9236 40.0175C66.7781 40.2051 67.5076 40.4552 68.112 40.7678C68.7164 41.0596 69.175 41.3723 69.4876 41.7058C69.5501 41.7474 69.5918 41.7995 69.6127 41.8621C69.6335 41.9246 69.6439 41.9871 69.6439 42.0497C69.6648 42.1122 69.6752 42.1851 69.6752 42.2685C69.6752 43.0397 69.6752 43.9463 69.6752 44.9884C69.6752 46.0097 69.6752 46.9789 69.6752 47.896C69.0082 47.896 68.3309 47.896 67.6431 47.896C66.9761 47.896 66.3091 47.896 65.6422 47.896C65.538 47.896 65.4546 47.8647 65.3921 47.8022C65.3296 47.7396 65.2983 47.6563 65.2983 47.5521C65.2983 47.2186 65.2983 46.8747 65.2983 46.5204C65.2983 46.166 65.2983 45.7596 65.2983 45.3011C65.2983 44.8425 65.2983 44.2902 65.2983 43.6441L66.1737 44.9259C65.6943 44.6341 65.1941 44.4361 64.673 44.3319C64.1728 44.2277 63.5996 44.1756 62.9535 44.1756C62.2032 44.1756 61.5466 44.3111 60.9839 44.582C60.442 44.853 60.0147 45.2802 59.7021 45.8638C59.4103 46.4266 59.2644 47.1665 59.2644 48.0835V53.8361C59.2644 54.7323 59.3478 55.4826 59.5145 56.087C59.6812 56.6915 59.9418 57.1709 60.2961 57.5252C60.6504 57.8795 61.0985 58.1296 61.6404 58.2755C62.2032 58.4006 62.818 58.4631 63.485 58.4631C64.6105 58.4631 65.6109 58.3485 66.4863 58.1192C67.3617 57.8691 68.2892 57.4418 69.2688 56.8374H69.894C69.894 57.1709 69.894 57.4939 69.894 57.8065C69.894 58.1192 69.894 58.4318 69.894 58.7445C69.894 59.0363 69.894 59.3489 69.894 59.6824C69.894 59.995 69.894 60.3285 69.894 60.6828C69.894 60.787 69.8732 60.8808 69.8315 60.9642C69.8107 61.0476 69.769 61.1205 69.7065 61.183C69.4355 61.454 68.9978 61.7145 68.3934 61.9646C67.789 62.2147 67.0595 62.4232 66.2049 62.5899C65.3712 62.7566 64.4542 62.84 63.4537 62.84Z" fill="#181717"/>
<path d="M287.327 62.2147C286.702 62.2147 285.972 62.2147 285.138 62.2147C284.305 62.2147 283.492 62.2147 282.7 62.2147C281.908 62.2147 281.23 62.2147 280.668 62.2147C280.105 62.2147 279.782 62.2147 279.699 62.2147C279.594 62.2147 279.511 62.1835 279.448 62.1209C279.386 62.0584 279.355 61.975 279.355 61.8708C279.355 60.1826 279.355 58.5673 279.355 57.025C279.355 55.4618 279.355 53.9298 279.355 52.4292C279.355 50.9077 279.355 49.3758 279.355 47.8334C279.355 46.2702 279.355 44.6445 279.355 42.9563H284.419L284.2 43.6128C284.2 44.2381 284.2 44.8425 284.2 45.4261C284.2 46.0097 284.2 46.5725 284.2 47.1144C284.2 48.0106 284.2 48.8964 284.2 49.7718C284.2 50.6472 284.2 51.533 284.2 52.4292C284.2 53.3046 284.2 54.2112 284.2 55.1491C284.2 56.087 284.2 57.0666 284.2 58.0879C284.492 58.0879 284.784 58.0879 285.076 58.0879C285.368 58.0879 285.659 58.0879 285.951 58.0879C286.243 58.0879 286.535 58.0879 286.827 58.0879C287.348 58.0879 287.765 58.015 288.077 57.8691C288.411 57.7023 288.65 57.4731 288.796 57.1813C288.963 56.8895 289.046 56.5456 289.046 56.1496V55.1491C289.046 54.6906 288.963 54.3154 288.796 54.0236C288.65 53.711 288.411 53.4922 288.077 53.3671C287.765 53.2212 287.348 53.1483 286.827 53.1483H281.699L281.887 50.2407H289.984V51.4913C291.214 51.658 292.173 52.127 292.861 52.8981C293.548 53.6485 293.892 54.701 293.892 56.0558V56.9312C293.892 58.2026 293.621 59.2238 293.079 59.995C292.537 60.7662 291.777 61.3289 290.797 61.6832C289.818 62.0376 288.661 62.2147 287.327 62.2147ZM277.948 40.3301C279.428 40.3301 280.907 40.3301 282.387 40.3301C283.867 40.3301 285.336 40.3301 286.795 40.3301C288.15 40.3301 289.276 40.476 290.172 40.7678C291.089 41.0596 291.818 41.4556 292.36 41.9559C292.902 42.4352 293.288 42.9876 293.517 43.6128C293.767 44.2173 293.892 44.8321 293.892 45.4574V46.1765C293.892 46.9685 293.746 47.6563 293.455 48.2399C293.184 48.8234 292.788 49.3132 292.267 49.7093C291.745 50.0844 291.12 50.3658 290.391 50.5534C289.682 50.741 288.9 50.8347 288.046 50.8347C286.754 50.8347 285.67 50.8347 284.795 50.8347C283.919 50.8347 283.138 50.8347 282.45 50.8347L281.887 51.2724L281.699 49.1778C282.554 49.1778 283.419 49.1778 284.294 49.1778C285.17 49.1778 286.035 49.1778 286.889 49.1778C287.369 49.1778 287.765 49.1048 288.077 48.9589C288.411 48.7922 288.65 48.5525 288.796 48.2399C288.963 47.9272 289.046 47.5416 289.046 47.0831V46.3328C289.046 46.041 289.005 45.7804 288.921 45.5512C288.859 45.3219 288.744 45.1343 288.577 44.9884C288.39 44.8009 288.15 44.6654 287.858 44.582C287.587 44.4986 287.254 44.457 286.858 44.457C285.92 44.457 284.972 44.457 284.013 44.457C283.054 44.457 282.095 44.457 281.137 44.457C280.199 44.457 279.25 44.457 278.292 44.457C278.187 44.457 278.104 44.4257 278.042 44.3632C277.979 44.3006 277.948 44.2173 277.948 44.1131C277.948 43.4253 277.948 42.8 277.948 42.2372C277.948 41.6536 277.948 41.0179 277.948 40.3301Z" fill="#181717"/>
<path d="M274.809 62.2147C274.288 62.2147 273.767 62.2147 273.246 62.2147C272.746 62.2147 272.235 62.2147 271.714 62.2147C271.193 62.2147 270.672 62.2147 270.151 62.2147C270.109 62.2147 270.068 62.2147 270.026 62.2147C269.984 62.1939 269.953 62.173 269.932 62.1522C269.911 62.1314 269.891 62.1105 269.87 62.0897C269.849 62.0688 269.828 62.0376 269.807 61.9959C269.807 61.9542 269.807 61.9125 269.807 61.8708C269.807 60.0784 269.807 58.2859 269.807 56.4935C269.807 54.701 269.807 52.9086 269.807 51.1161C269.807 49.3028 269.807 47.5 269.807 45.7075C269.807 43.9151 269.807 42.1226 269.807 40.3301C270.328 40.3301 270.839 40.3301 271.339 40.3301C271.86 40.3301 272.381 40.3301 272.902 40.3301C273.423 40.3301 273.945 40.3301 274.466 40.3301C274.528 40.3301 274.58 40.351 274.622 40.3927C274.684 40.4135 274.726 40.4552 274.747 40.5177C274.789 40.5594 274.809 40.6115 274.809 40.674C274.809 42.1747 274.809 43.6858 274.809 45.2073C274.809 46.7079 274.809 48.219 274.809 49.7405C274.809 51.2412 274.809 52.7523 274.809 54.2738C274.809 55.7744 274.809 57.2751 274.809 58.7757C274.809 59.401 274.809 60.0054 274.809 60.589C274.809 61.1726 274.809 61.7145 274.809 62.2147ZM263.93 62.5274C263.033 62.5274 262.262 62.4023 261.616 62.1522C260.991 61.9021 260.47 61.5373 260.053 61.058C259.657 60.5578 259.355 59.9533 259.146 59.2447C258.959 58.536 258.865 57.7128 258.865 56.7748C258.865 55.3992 258.865 53.982 258.865 52.523C258.865 51.064 258.865 49.5738 258.865 48.0523C258.865 46.5099 258.865 44.978 258.865 43.4565C258.865 42.9355 258.865 42.4144 258.865 41.8933C258.865 41.3723 258.865 40.8512 258.865 40.3301C259.657 40.3301 260.439 40.3301 261.21 40.3301C261.981 40.3301 262.752 40.3301 263.523 40.3301C263.607 40.3301 263.669 40.351 263.711 40.3927C263.753 40.4135 263.784 40.4448 263.805 40.4865C263.846 40.5282 263.867 40.5907 263.867 40.674C263.867 42.404 263.867 44.1756 263.867 45.9889C263.867 47.8022 263.867 49.605 263.867 51.3975C263.867 53.1691 263.867 54.8573 263.867 56.4622C263.867 57.0875 263.982 57.5252 264.211 57.7753C264.461 58.0254 264.899 58.1504 265.524 58.1504C266.149 58.1504 266.743 58.0358 267.306 57.8065C267.869 57.5564 268.411 57.1917 268.932 56.7123C269.474 56.2329 269.995 55.6389 270.495 54.9303V59.3697H269.182C268.807 60.0575 268.369 60.6411 267.869 61.1205C267.369 61.579 266.785 61.9334 266.118 62.1835C265.472 62.4127 264.743 62.5274 263.93 62.5274Z" fill="#181717"/>
<path d="M242.02 62.2147C241.978 62.2147 241.937 62.2043 241.895 62.1835C241.853 62.1626 241.812 62.1418 241.77 62.1209C241.749 62.0792 241.728 62.0376 241.707 61.9959C241.686 61.9542 241.676 61.9125 241.676 61.8708C241.676 60.2868 241.676 58.7028 241.676 57.1187C241.676 55.5347 241.676 53.9507 241.676 52.3667C241.676 50.7618 241.676 49.1673 241.676 47.5833C241.676 45.9993 241.676 44.4153 241.676 42.8312C241.676 42.4144 241.676 41.9975 241.676 41.5807C241.676 41.1638 241.676 40.747 241.676 40.3301C242.468 40.3301 243.25 40.3301 244.021 40.3301C244.792 40.3301 245.563 40.3301 246.334 40.3301C246.397 40.3301 246.449 40.351 246.491 40.3927C246.553 40.4135 246.595 40.4552 246.616 40.5177C246.657 40.5594 246.678 40.6115 246.678 40.674C246.678 42.0913 246.678 43.5295 246.678 44.9884C246.678 46.4266 246.678 47.8751 246.678 49.3341C246.678 50.7931 246.678 52.252 246.678 53.711C246.678 55.1491 246.678 56.5768 246.678 57.9941H251.337C251.962 57.9941 252.483 58.0671 252.9 58.213C253.337 58.3589 253.692 58.5986 253.963 58.932C254.254 59.2655 254.484 59.7032 254.65 60.2451C254.838 60.7662 254.994 61.4227 255.119 62.2147H242.02ZM250.742 55.8057C251.222 55.8057 251.68 55.8057 252.118 55.8057C252.556 55.8057 252.983 55.8057 253.4 55.8057C253.838 55.8057 254.296 55.8057 254.776 55.8057C254.838 55.8057 254.89 55.8265 254.932 55.8682C254.994 55.889 255.036 55.9307 255.057 55.9933C255.099 56.0349 255.119 56.087 255.119 56.1496C255.119 56.5456 255.119 57.0041 255.119 57.5252C255.119 58.0462 255.119 58.5986 255.119 59.1821C255.119 59.7449 255.119 60.2972 255.119 60.8391C255.119 61.3602 255.119 61.8187 255.119 62.2147C254.015 62.1105 253.139 61.8917 252.493 61.5582C251.847 61.2247 251.389 60.7974 251.118 60.2764C250.868 59.7345 250.742 59.1196 250.742 58.4318C250.742 58.1609 250.742 57.8691 250.742 57.5564C250.742 57.2438 250.742 56.9312 250.742 56.6185C250.742 56.3059 250.742 56.0349 250.742 55.8057Z" fill="#181717"/>
<path d="M231.496 62.84C229.954 62.84 228.599 62.642 227.432 62.246C226.286 61.8708 225.327 61.3185 224.556 60.589C223.805 59.8595 223.243 58.9633 222.867 57.9003C222.492 56.8165 222.305 55.5868 222.305 54.2112V47.9898C222.305 46.76 222.492 45.645 222.867 44.6445C223.263 43.6233 223.837 42.7479 224.587 42.0184C225.337 41.2681 226.254 40.6949 227.338 40.2989C228.443 39.9029 229.693 39.7049 231.09 39.7049C232.153 39.7049 233.112 39.8091 233.966 40.0175C234.821 40.2051 235.55 40.4552 236.154 40.7678C236.759 41.0596 237.217 41.3723 237.53 41.7058C237.593 41.7474 237.634 41.7995 237.655 41.8621C237.676 41.9246 237.686 41.9871 237.686 42.0497C237.707 42.1122 237.718 42.1851 237.718 42.2685C237.718 43.0397 237.718 43.9463 237.718 44.9884C237.718 46.0097 237.718 46.9789 237.718 47.896C237.051 47.896 236.373 47.896 235.686 47.896C235.019 47.896 234.352 47.896 233.685 47.896C233.58 47.896 233.497 47.8647 233.435 47.8022C233.372 47.7396 233.341 47.6563 233.341 47.5521C233.341 47.2186 233.341 46.8747 233.341 46.5204C233.341 46.166 233.341 45.7596 233.341 45.3011C233.341 44.8425 233.341 44.2902 233.341 43.6441L234.216 44.9259C233.737 44.6341 233.237 44.4361 232.715 44.3319C232.215 44.2277 231.642 44.1756 230.996 44.1756C230.246 44.1756 229.589 44.3111 229.026 44.582C228.484 44.853 228.057 45.2802 227.745 45.8638C227.453 46.4266 227.307 47.1665 227.307 48.0835V53.8361C227.307 54.7323 227.39 55.4826 227.557 56.087C227.724 56.6915 227.984 57.1709 228.339 57.5252C228.693 57.8795 229.141 58.1296 229.683 58.2755C230.246 58.4006 230.861 58.4631 231.527 58.4631C232.653 58.4631 233.653 58.3485 234.529 58.1192C235.404 57.8691 236.332 57.4418 237.311 56.8374H237.937C237.937 57.1709 237.937 57.4939 237.937 57.8065C237.937 58.1192 237.937 58.4318 237.937 58.7445C237.937 59.0363 237.937 59.3489 237.937 59.6824C237.937 59.995 237.937 60.3285 237.937 60.6828C237.937 60.787 237.916 60.8808 237.874 60.9642C237.853 61.0476 237.811 61.1205 237.749 61.183C237.478 61.454 237.04 61.7145 236.436 61.9646C235.831 62.2147 235.102 62.4232 234.247 62.5899C233.414 62.7566 232.497 62.84 231.496 62.84Z" fill="#181717"/>
</svg>
