<svg width="48" height="48" viewBox="0 0 48 48" fill="none" xmlns="http://www.w3.org/2000/svg">
<path d="M26.288 44.48C23.7227 44.48 21.4693 44.1507 19.528 43.492C17.6213 42.868 16.0267 41.9493 14.744 40.736C13.496 39.5227 12.56 38.032 11.936 36.264C11.312 34.4613 11 32.416 11 30.128V19.78C11 17.7347 11.312 15.88 11.936 14.216C12.5947 12.5173 13.548 11.0613 14.796 9.848C16.044 8.6 17.5693 7.64667 19.372 6.988C21.2093 6.32933 23.2893 6 25.612 6C27.38 6 28.9747 6.17333 30.396 6.52C31.8173 6.832 33.0307 7.248 34.036 7.768C35.0413 8.25333 35.804 8.77333 36.324 9.328C36.428 9.39733 36.4973 9.484 36.532 9.588C36.5667 9.692 36.584 9.796 36.584 9.9C36.6187 10.004 36.636 10.1253 36.636 10.264C36.636 11.5467 36.636 13.0547 36.636 14.788C36.636 16.4867 36.636 18.0987 36.636 19.624C35.5267 19.624 34.4 19.624 33.256 19.624C32.1467 19.624 31.0373 19.624 29.928 19.624C29.7547 19.624 29.616 19.572 29.512 19.468C29.408 19.364 29.356 19.2253 29.356 19.052C29.356 18.4973 29.356 17.9253 29.356 17.336C29.356 16.7467 29.356 16.0707 29.356 15.308C29.356 14.5453 29.356 13.6267 29.356 12.552L30.812 14.684C30.0147 14.1987 29.1827 13.8693 28.316 13.696C27.484 13.5227 26.5307 13.436 25.456 13.436C24.208 13.436 23.116 13.6613 22.18 14.112C21.2787 14.5627 20.568 15.2733 20.048 16.244C19.5627 17.18 19.32 18.4107 19.32 19.936V29.504C19.32 30.9947 19.4587 32.2427 19.736 33.248C20.0133 34.2533 20.4467 35.0507 21.036 35.64C21.6253 36.2293 22.3707 36.6453 23.272 36.888C24.208 37.096 25.2307 37.2 26.34 37.2C28.212 37.2 29.876 37.0093 31.332 36.628C32.788 36.212 34.3307 35.5013 35.96 34.496H37C37 35.0507 37 35.588 37 36.108C37 36.628 37 37.148 37 37.668C37 38.1533 37 38.6733 37 39.228C37 39.748 37 40.3027 37 40.892C37 41.0653 36.9653 41.2213 36.896 41.36C36.8613 41.4987 36.792 41.62 36.688 41.724C36.2373 42.1747 35.5093 42.608 34.504 43.024C33.4987 43.44 32.2853 43.7867 30.864 44.064C29.4773 44.3413 27.952 44.48 26.288 44.48Z" fill="black"/>
</svg>
