<svg width="48" height="54" viewBox="0 0 48 54" fill="none" xmlns="http://www.w3.org/2000/svg">
<path d="M26.288 53.48C23.7227 53.48 21.4693 53.1507 19.528 52.492C17.6213 51.868 16.0267 50.9493 14.744 49.736C13.496 48.5227 12.56 47.032 11.936 45.264C11.312 43.4613 11 41.416 11 39.128V28.78C11 26.7347 11.312 24.88 11.936 23.216C12.5947 21.5173 13.548 20.0613 14.796 18.848C16.044 17.6 17.5693 16.6467 19.372 15.988C21.2093 15.3293 23.2893 15 25.612 15C27.38 15 28.9747 15.1733 30.396 15.52C31.8173 15.832 33.0307 16.248 34.036 16.768C35.0413 17.2533 35.804 17.7733 36.324 18.328C36.428 18.3973 36.4973 18.484 36.532 18.588C36.5667 18.692 36.584 18.796 36.584 18.9C36.6187 19.004 36.636 19.1253 36.636 19.264C36.636 20.5467 36.636 22.0547 36.636 23.788C36.636 25.4867 36.636 27.0987 36.636 28.624C35.5267 28.624 34.4 28.624 33.256 28.624C32.1467 28.624 31.0373 28.624 29.928 28.624C29.7547 28.624 29.616 28.572 29.512 28.468C29.408 28.364 29.356 28.2253 29.356 28.052C29.356 27.4973 29.356 26.9253 29.356 26.336C29.356 25.7467 29.356 25.0707 29.356 24.308C29.356 23.5453 29.356 22.6267 29.356 21.552L30.812 23.684C30.0147 23.1987 29.1827 22.8693 28.316 22.696C27.484 22.5227 26.5307 22.436 25.456 22.436C24.208 22.436 23.116 22.6613 22.18 23.112C21.2787 23.5627 20.568 24.2733 20.048 25.244C19.5627 26.18 19.32 27.4107 19.32 28.936V38.504C19.32 39.9947 19.4587 41.2427 19.736 42.248C20.0133 43.2533 20.4467 44.0507 21.036 44.64C21.6253 45.2293 22.3707 45.6453 23.272 45.888C24.208 46.096 25.2307 46.2 26.34 46.2C28.212 46.2 29.876 46.0093 31.332 45.628C32.788 45.212 34.3307 44.5013 35.96 43.496H37C37 44.0507 37 44.588 37 45.108C37 45.628 37 46.148 37 46.668C37 47.1533 37 47.6733 37 48.228C37 48.748 37 49.3027 37 49.892C37 50.0653 36.9653 50.2213 36.896 50.36C36.8613 50.4987 36.792 50.62 36.688 50.724C36.2373 51.1747 35.5093 51.608 34.504 52.024C33.4987 52.44 32.2853 52.7867 30.864 53.064C29.4773 53.3413 27.952 53.48 26.288 53.48Z" fill="#2E2D29"/>
</svg>
