<svg width="333" height="142" viewBox="0 0 333 142" fill="none" xmlns="http://www.w3.org/2000/svg">
<path d="M259.993 137C259.593 137 259.127 137 258.593 137C258.073 137 257.567 137 257.073 137C256.58 137 256.153 137 255.793 137C255.433 137 255.227 137 255.173 137C255.107 137 255.053 136.98 255.013 136.94C254.973 136.9 254.953 136.847 254.953 136.78C254.953 135.687 254.953 134.64 254.953 133.64C254.953 132.627 254.953 131.633 254.953 130.66C254.953 129.673 254.953 128.68 254.953 127.68C254.953 126.667 254.953 125.613 254.953 124.52H257.873L257.733 124.92C257.733 125.36 257.733 125.78 257.733 126.18C257.733 126.58 257.733 126.973 257.733 127.36C257.733 127.96 257.733 128.553 257.733 129.14C257.733 129.713 257.733 130.293 257.733 130.88C257.733 131.467 257.733 132.073 257.733 132.7C257.733 133.313 257.733 133.947 257.733 134.6C257.96 134.6 258.173 134.6 258.373 134.6C258.587 134.6 258.8 134.6 259.013 134.6C259.227 134.6 259.44 134.6 259.653 134.6C260.04 134.6 260.353 134.547 260.593 134.44C260.847 134.32 261.033 134.153 261.153 133.94C261.273 133.713 261.333 133.447 261.333 133.14V132.52C261.333 132.2 261.273 131.933 261.153 131.72C261.033 131.507 260.84 131.347 260.573 131.24C260.32 131.133 259.973 131.08 259.533 131.08H256.313L256.413 129.38H261.633V130.1C262.433 130.22 263.047 130.527 263.473 131.02C263.913 131.5 264.133 132.167 264.133 133.02V133.58C264.133 134.393 263.96 135.053 263.613 135.56C263.267 136.053 262.787 136.42 262.173 136.66C261.56 136.887 260.833 137 259.993 137ZM253.973 123C254.92 123 255.867 123 256.813 123C257.76 123 258.7 123 259.633 123C260.473 123 261.173 123.093 261.733 123.28C262.307 123.453 262.76 123.693 263.093 124C263.44 124.307 263.693 124.66 263.853 125.06C264.013 125.46 264.093 125.867 264.093 126.28V126.74C264.093 127.247 264 127.693 263.813 128.08C263.627 128.453 263.36 128.767 263.013 129.02C262.68 129.273 262.273 129.467 261.793 129.6C261.313 129.72 260.78 129.78 260.193 129.78C259.42 129.78 258.76 129.78 258.213 129.78C257.68 129.78 257.193 129.78 256.753 129.78L256.413 130.04L256.313 128.76C256.86 128.76 257.407 128.76 257.953 128.76C258.5 128.76 259.04 128.76 259.573 128.76C259.987 128.76 260.32 128.707 260.573 128.6C260.827 128.48 261.007 128.307 261.113 128.08C261.233 127.84 261.293 127.56 261.293 127.24V126.74C261.293 126.54 261.267 126.36 261.213 126.2C261.16 126.027 261.073 125.887 260.953 125.78C260.82 125.647 260.647 125.553 260.433 125.5C260.22 125.433 259.96 125.4 259.653 125.4C259.053 125.4 258.447 125.4 257.833 125.4C257.233 125.4 256.627 125.4 256.013 125.4C255.413 125.4 254.807 125.4 254.193 125.4C254.127 125.4 254.073 125.38 254.033 125.34C253.993 125.3 253.973 125.247 253.973 125.18C253.973 124.78 253.973 124.413 253.973 124.08C253.973 123.747 253.973 123.387 253.973 123Z" fill="#A5A1AB"/>
<path d="M247.106 137C246.812 137 246.519 137 246.226 137C245.932 137 245.639 137 245.346 137C245.052 137 244.752 137 244.446 137C244.419 137 244.392 137 244.366 137C244.339 136.987 244.319 136.973 244.306 136.96C244.292 136.947 244.279 136.933 244.266 136.92C244.252 136.907 244.239 136.887 244.226 136.86C244.226 136.833 244.226 136.807 244.226 136.78C244.226 135.633 244.226 134.487 244.226 133.34C244.226 132.193 244.226 131.047 244.226 129.9C244.226 128.74 244.226 127.587 244.226 126.44C244.226 125.293 244.226 124.147 244.226 123C244.532 123 244.826 123 245.106 123C245.399 123 245.692 123 245.986 123C246.292 123 246.592 123 246.886 123C246.926 123 246.959 123.013 246.986 123.04C247.026 123.053 247.052 123.08 247.066 123.12C247.092 123.147 247.106 123.18 247.106 123.22C247.106 124.18 247.106 125.147 247.106 126.12C247.106 127.093 247.106 128.067 247.106 129.04C247.106 130 247.106 130.967 247.106 131.94C247.106 132.9 247.106 133.86 247.106 134.82C247.106 135.22 247.106 135.607 247.106 135.98C247.106 136.34 247.106 136.68 247.106 137ZM240.306 137.22C239.732 137.22 239.239 137.14 238.826 136.98C238.412 136.82 238.072 136.587 237.806 136.28C237.539 135.96 237.339 135.573 237.206 135.12C237.072 134.667 237.006 134.14 237.006 133.54C237.006 132.66 237.006 131.753 237.006 130.82C237.006 129.887 237.006 128.927 237.006 127.94C237.006 126.953 237.006 125.973 237.006 125C237.006 124.667 237.006 124.333 237.006 124C237.006 123.667 237.006 123.333 237.006 123C237.459 123 237.906 123 238.346 123C238.786 123 239.226 123 239.666 123C239.719 123 239.759 123.013 239.786 123.04C239.812 123.053 239.832 123.073 239.846 123.1C239.872 123.127 239.886 123.167 239.886 123.22C239.886 124.34 239.886 125.48 239.886 126.64C239.886 127.8 239.886 128.953 239.886 130.1C239.886 131.233 239.886 132.32 239.886 133.36C239.886 133.84 239.986 134.187 240.186 134.4C240.386 134.6 240.719 134.7 241.186 134.7C241.626 134.7 242.039 134.62 242.426 134.46C242.826 134.287 243.212 134.027 243.586 133.68C243.959 133.32 244.319 132.867 244.666 132.32V135.16H243.826C243.572 135.6 243.272 135.973 242.926 136.28C242.592 136.587 242.206 136.82 241.766 136.98C241.339 137.14 240.852 137.22 240.306 137.22Z" fill="#A5A1AB"/>
<path d="M221.45 137C221.423 137 221.396 136.993 221.37 136.98C221.343 136.967 221.316 136.953 221.29 136.94C221.276 136.913 221.263 136.887 221.25 136.86C221.236 136.833 221.23 136.807 221.23 136.78C221.23 135.753 221.23 134.72 221.23 133.68C221.23 132.64 221.23 131.607 221.23 130.58C221.23 129.553 221.23 128.547 221.23 127.56C221.23 126.56 221.23 125.593 221.23 124.66C221.23 124.38 221.23 124.107 221.23 123.84C221.23 123.56 221.23 123.28 221.23 123C221.683 123 222.13 123 222.57 123C223.01 123 223.45 123 223.89 123C223.93 123 223.963 123.013 223.99 123.04C224.03 123.053 224.056 123.08 224.07 123.12C224.096 123.147 224.11 123.18 224.11 123.22C224.11 124.153 224.11 125.093 224.11 126.04C224.11 126.987 224.11 127.94 224.11 128.9C224.11 129.847 224.11 130.793 224.11 131.74C224.11 132.687 224.11 133.627 224.11 134.56H227.59C227.936 134.56 228.23 134.607 228.47 134.7C228.723 134.78 228.93 134.92 229.09 135.12C229.25 135.32 229.376 135.573 229.47 135.88C229.576 136.187 229.67 136.56 229.75 137H221.45ZM227.21 133.02C227.476 133.02 227.736 133.02 227.99 133.02C228.243 133.02 228.49 133.02 228.73 133.02C228.983 133.02 229.25 133.02 229.53 133.02C229.57 133.02 229.603 133.033 229.63 133.06C229.67 133.073 229.696 133.1 229.71 133.14C229.736 133.167 229.75 133.2 229.75 133.24C229.75 133.493 229.75 133.78 229.75 134.1C229.75 134.42 229.75 134.76 229.75 135.12C229.75 135.467 229.75 135.807 229.75 136.14C229.75 136.46 229.75 136.747 229.75 137C229.096 136.947 228.583 136.827 228.21 136.64C227.836 136.453 227.576 136.207 227.43 135.9C227.283 135.593 227.21 135.24 227.21 134.84C227.21 134.653 227.21 134.453 227.21 134.24C227.21 134.027 227.21 133.813 227.21 133.6C227.21 133.373 227.21 133.18 227.21 133.02Z" fill="#A5A1AB"/>
<path d="M209.797 137.4C208.837 137.4 207.997 137.273 207.277 137.02C206.557 136.78 205.957 136.427 205.477 135.96C204.997 135.493 204.637 134.92 204.397 134.24C204.171 133.56 204.057 132.787 204.057 131.92V127.88C204.057 127.093 204.177 126.38 204.417 125.74C204.657 125.087 205.011 124.527 205.477 124.06C205.957 123.593 206.537 123.233 207.217 122.98C207.911 122.727 208.697 122.6 209.577 122.6C210.257 122.6 210.864 122.667 211.397 122.8C211.944 122.92 212.404 123.08 212.777 123.28C213.164 123.467 213.464 123.667 213.677 123.88C213.704 123.907 213.724 123.94 213.737 123.98C213.751 124.02 213.757 124.06 213.757 124.1C213.771 124.14 213.777 124.18 213.777 124.22C213.777 124.713 213.777 125.28 213.777 125.92C213.777 126.547 213.777 127.147 213.777 127.72C213.391 127.72 213.004 127.72 212.617 127.72C212.231 127.72 211.844 127.72 211.457 127.72C211.391 127.72 211.337 127.7 211.297 127.66C211.257 127.62 211.237 127.567 211.237 127.5C211.237 127.26 211.237 127.02 211.237 126.78C211.237 126.54 211.237 126.273 211.237 125.98C211.237 125.673 211.237 125.32 211.237 124.92L211.797 125.76C211.464 125.547 211.117 125.4 210.757 125.32C210.397 125.227 209.991 125.18 209.537 125.18C209.004 125.18 208.537 125.28 208.137 125.48C207.751 125.667 207.451 125.967 207.237 126.38C207.037 126.793 206.937 127.32 206.937 127.96V131.7C206.937 132.3 206.991 132.807 207.097 133.22C207.217 133.62 207.411 133.953 207.677 134.22C207.917 134.46 208.217 134.633 208.577 134.74C208.951 134.833 209.364 134.88 209.817 134.88C210.551 134.88 211.197 134.793 211.757 134.62C212.317 134.447 212.904 134.167 213.517 133.78H213.897C213.897 133.967 213.897 134.153 213.897 134.34C213.897 134.513 213.897 134.693 213.897 134.88C213.897 135.053 213.897 135.233 213.897 135.42C213.897 135.593 213.897 135.78 213.897 135.98C213.897 136.047 213.884 136.107 213.857 136.16C213.844 136.213 213.817 136.253 213.777 136.28C213.591 136.48 213.304 136.667 212.917 136.84C212.531 137 212.071 137.133 211.537 137.24C211.004 137.347 210.424 137.4 209.797 137.4Z" fill="#A5A1AB"/>
<path d="M183.329 130.6C183.676 131.213 183.996 131.787 184.289 132.32C184.582 132.84 184.896 133.413 185.229 134.04C185.349 134.24 185.456 134.38 185.549 134.46C185.656 134.527 185.782 134.56 185.929 134.56C185.996 134.56 186.042 134.56 186.069 134.56C186.109 134.56 186.156 134.56 186.209 134.56H186.589C186.589 134.96 186.589 135.333 186.589 135.68C186.589 136.013 186.589 136.38 186.589 136.78C186.589 136.847 186.569 136.9 186.529 136.94C186.489 136.98 186.436 137 186.369 137C186.276 137 186.149 137 185.989 137C185.842 137 185.702 137 185.569 137C185.116 137 184.736 136.967 184.429 136.9C184.122 136.82 183.856 136.687 183.629 136.5C183.416 136.3 183.216 136.027 183.029 135.68C182.682 135 182.336 134.327 181.989 133.66C181.656 132.98 181.316 132.307 180.969 131.64L183.329 130.6ZM175.989 123C176.909 123 177.829 123 178.749 123C179.669 123 180.589 123 181.509 123C182.322 123 183.016 123.093 183.589 123.28C184.162 123.467 184.629 123.747 184.989 124.12C185.349 124.48 185.609 124.913 185.769 125.42C185.942 125.927 186.029 126.493 186.029 127.12V128.24C186.029 128.853 185.936 129.407 185.749 129.9C185.562 130.38 185.289 130.793 184.929 131.14C184.582 131.473 184.156 131.727 183.649 131.9C183.142 132.073 182.569 132.16 181.929 132.16C181.529 132.16 181.122 132.16 180.709 132.16C180.309 132.16 179.902 132.16 179.489 132.16L179.269 132.28V129.8C179.656 129.8 180.042 129.8 180.429 129.8C180.829 129.8 181.222 129.8 181.609 129.8C181.982 129.8 182.289 129.747 182.529 129.64C182.769 129.533 182.942 129.367 183.049 129.14C183.169 128.9 183.229 128.613 183.229 128.28V126.98C183.229 126.727 183.196 126.507 183.129 126.32C183.076 126.133 182.982 125.973 182.849 125.84C182.729 125.72 182.562 125.627 182.349 125.56C182.149 125.48 181.902 125.44 181.609 125.44C181.009 125.44 180.402 125.44 179.789 125.44C179.189 125.44 178.589 125.44 177.989 125.44C177.402 125.44 176.809 125.44 176.209 125.44C176.142 125.44 176.089 125.42 176.049 125.38C176.009 125.34 175.989 125.287 175.989 125.22C175.989 124.833 175.989 124.467 175.989 124.12C175.989 123.76 175.989 123.387 175.989 123ZM179.749 137C179.309 137 178.882 137 178.469 137C178.069 137 177.642 137 177.189 137C177.122 137 177.069 136.98 177.029 136.94C176.989 136.9 176.969 136.847 176.969 136.78C176.969 135.7 176.969 134.66 176.969 133.66C176.969 132.647 176.969 131.64 176.969 130.64C176.969 129.64 176.969 128.633 176.969 127.62C176.969 126.593 176.969 125.553 176.969 124.5H179.989L179.749 125.04C179.749 125.48 179.749 125.92 179.749 126.36C179.749 126.787 179.749 127.2 179.749 127.6C179.749 128.427 179.749 129.24 179.749 130.04C179.749 130.827 179.749 131.633 179.749 132.46C179.749 133.273 179.749 134.133 179.749 135.04C179.749 135.4 179.749 135.747 179.749 136.08C179.749 136.413 179.749 136.72 179.749 137Z" fill="#A5A1AB"/>
<path d="M160.173 123H169.353C169.393 123 169.426 123.013 169.453 123.04C169.48 123.053 169.506 123.08 169.533 123.12C169.56 123.147 169.573 123.18 169.573 123.22C169.573 123.633 169.573 124.007 169.573 124.34C169.573 124.66 169.573 125.027 169.573 125.44H160.393C160.353 125.44 160.313 125.433 160.273 125.42C160.246 125.393 160.22 125.367 160.193 125.34C160.18 125.3 160.173 125.26 160.173 125.22C160.173 124.807 160.173 124.433 160.173 124.1C160.173 123.767 160.173 123.4 160.173 123ZM162.913 128.78H168.173C168.213 128.78 168.246 128.793 168.273 128.82C168.313 128.847 168.34 128.873 168.353 128.9C168.38 128.927 168.393 128.96 168.393 129C168.393 129.28 168.393 129.54 168.393 129.78C168.393 130.007 168.393 130.233 168.393 130.46C168.393 130.673 168.393 130.9 168.393 131.14H162.913V128.78ZM161.373 137C161.333 137 161.3 136.993 161.273 136.98C161.246 136.967 161.22 136.953 161.193 136.94C161.18 136.913 161.166 136.887 161.153 136.86C161.14 136.833 161.133 136.807 161.133 136.78C161.133 136.42 161.133 135.9 161.133 135.22C161.133 134.527 161.133 133.74 161.133 132.86C161.133 131.967 161.133 131.033 161.133 130.06C161.133 129.073 161.133 128.1 161.133 127.14C161.133 126.167 161.133 125.273 161.133 124.46H164.173L164.013 124.9C164.013 125.207 164.013 125.52 164.013 125.84C164.013 126.16 164.013 126.48 164.013 126.8C164.013 127.413 164.013 128.047 164.013 128.7C164.013 129.353 164.013 130.007 164.013 130.66C164.013 131.313 164.013 131.973 164.013 132.64C164.013 133.293 164.013 133.933 164.013 134.56H169.353C169.42 134.56 169.473 134.58 169.513 134.62C169.553 134.66 169.573 134.713 169.573 134.78C169.573 135.167 169.573 135.54 169.573 135.9C169.573 136.247 169.573 136.613 169.573 137H161.373Z" fill="#A5A1AB"/>
<path d="M143.821 123H153.541C153.607 123 153.661 123.02 153.701 123.06C153.754 123.1 153.781 123.153 153.781 123.22C153.781 123.633 153.781 124.007 153.781 124.34C153.781 124.66 153.781 125.027 153.781 125.44H144.061C144.021 125.44 143.981 125.433 143.941 125.42C143.914 125.393 143.887 125.367 143.861 125.34C143.834 125.3 143.821 125.26 143.821 125.22C143.821 124.807 143.821 124.433 143.821 124.1C143.821 123.767 143.821 123.4 143.821 123ZM150.241 137C149.801 137 149.361 137 148.921 137C148.481 137 148.034 137 147.581 137C147.514 137 147.461 136.98 147.421 136.94C147.381 136.9 147.361 136.847 147.361 136.78C147.361 135.7 147.361 134.653 147.361 133.64C147.361 132.627 147.361 131.613 147.361 130.6C147.361 129.573 147.361 128.547 147.361 127.52C147.361 126.48 147.361 125.433 147.361 124.38H150.461L150.241 124.92C150.241 125.187 150.241 125.473 150.241 125.78C150.241 126.073 150.241 126.36 150.241 126.64C150.241 126.92 150.241 127.187 150.241 127.44C150.241 128.293 150.241 129.127 150.241 129.94C150.241 130.74 150.241 131.56 150.241 132.4C150.241 133.227 150.241 134.1 150.241 135.02C150.241 135.393 150.241 135.747 150.241 136.08C150.241 136.413 150.241 136.72 150.241 137Z" fill="#A5A1AB"/>
<path d="M136.533 137C136.24 137 135.946 137 135.653 137C135.36 137 135.066 137 134.773 137C134.48 137 134.18 137 133.873 137C133.846 137 133.82 137 133.793 137C133.766 136.987 133.746 136.973 133.733 136.96C133.72 136.947 133.706 136.933 133.693 136.92C133.68 136.907 133.666 136.887 133.653 136.86C133.653 136.833 133.653 136.807 133.653 136.78C133.653 135.633 133.653 134.487 133.653 133.34C133.653 132.193 133.653 131.047 133.653 129.9C133.653 128.74 133.653 127.587 133.653 126.44C133.653 125.293 133.653 124.147 133.653 123C133.96 123 134.253 123 134.533 123C134.826 123 135.12 123 135.413 123C135.72 123 136.02 123 136.313 123C136.353 123 136.386 123.013 136.413 123.04C136.453 123.053 136.48 123.08 136.493 123.12C136.52 123.147 136.533 123.18 136.533 123.22C136.533 124.18 136.533 125.147 136.533 126.12C136.533 127.093 136.533 128.067 136.533 129.04C136.533 130 136.533 130.967 136.533 131.94C136.533 132.9 136.533 133.86 136.533 134.82C136.533 135.22 136.533 135.607 136.533 135.98C136.533 136.34 136.533 136.68 136.533 137ZM129.733 137.22C129.16 137.22 128.666 137.14 128.253 136.98C127.84 136.82 127.5 136.587 127.233 136.28C126.966 135.96 126.766 135.573 126.633 135.12C126.5 134.667 126.433 134.14 126.433 133.54C126.433 132.66 126.433 131.753 126.433 130.82C126.433 129.887 126.433 128.927 126.433 127.94C126.433 126.953 126.433 125.973 126.433 125C126.433 124.667 126.433 124.333 126.433 124C126.433 123.667 126.433 123.333 126.433 123C126.886 123 127.333 123 127.773 123C128.213 123 128.653 123 129.093 123C129.146 123 129.186 123.013 129.213 123.04C129.24 123.053 129.26 123.073 129.273 123.1C129.3 123.127 129.313 123.167 129.313 123.22C129.313 124.34 129.313 125.48 129.313 126.64C129.313 127.8 129.313 128.953 129.313 130.1C129.313 131.233 129.313 132.32 129.313 133.36C129.313 133.84 129.413 134.187 129.613 134.4C129.813 134.6 130.146 134.7 130.613 134.7C131.053 134.7 131.466 134.62 131.853 134.46C132.253 134.287 132.64 134.027 133.013 133.68C133.386 133.32 133.746 132.867 134.093 132.32V135.16H133.253C133 135.6 132.7 135.973 132.353 136.28C132.02 136.587 131.633 136.82 131.193 136.98C130.766 137.14 130.28 137.22 129.733 137.22Z" fill="#A5A1AB"/>
<path d="M112.661 137C112.221 137 111.781 137 111.341 137C110.901 137 110.454 137 110.001 137C109.934 137 109.881 136.98 109.841 136.94C109.801 136.9 109.781 136.847 109.781 136.78C109.781 135.7 109.781 134.66 109.781 133.66C109.781 132.647 109.781 131.64 109.781 130.64C109.781 129.64 109.781 128.633 109.781 127.62C109.781 126.593 109.781 125.553 109.781 124.5H112.881L112.661 125.04C112.661 125.4 112.661 125.74 112.661 126.06C112.661 126.367 112.661 126.687 112.661 127.02C112.661 127.887 112.661 128.76 112.661 129.64C112.661 130.507 112.661 131.387 112.661 132.28C112.661 133.16 112.661 134.08 112.661 135.04C112.661 135.4 112.661 135.747 112.661 136.08C112.661 136.413 112.661 136.72 112.661 137ZM108.801 123C109.707 123 110.667 123 111.681 123C112.694 123 113.607 123 114.421 123C115.074 123 115.654 123.06 116.161 123.18C116.667 123.3 117.101 123.48 117.461 123.72C117.834 123.947 118.134 124.233 118.361 124.58C118.601 124.913 118.781 125.307 118.901 125.76C119.021 126.2 119.081 126.693 119.081 127.24V128.46C119.081 129.127 118.994 129.727 118.821 130.26C118.647 130.78 118.374 131.227 118.001 131.6C117.641 131.96 117.161 132.24 116.561 132.44C115.974 132.627 115.267 132.72 114.441 132.72C114.094 132.72 113.741 132.72 113.381 132.72C113.021 132.72 112.661 132.72 112.301 132.72L112.081 132.8V130.28C112.521 130.28 112.947 130.28 113.361 130.28C113.774 130.28 114.134 130.28 114.441 130.28C114.734 130.28 114.987 130.247 115.201 130.18C115.427 130.113 115.614 130.013 115.761 129.88C115.907 129.747 116.014 129.573 116.081 129.36C116.147 129.147 116.181 128.88 116.181 128.56V127.1C116.181 126.793 116.147 126.54 116.081 126.34C116.027 126.127 115.934 125.953 115.801 125.82C115.667 125.673 115.487 125.573 115.261 125.52C115.034 125.453 114.761 125.42 114.441 125.42C113.854 125.42 113.254 125.42 112.641 125.42C112.027 125.42 111.414 125.42 110.801 125.42C110.187 125.42 109.594 125.42 109.021 125.42C108.954 125.42 108.901 125.4 108.861 125.36C108.821 125.32 108.801 125.267 108.801 125.2C108.801 124.813 108.801 124.447 108.801 124.1C108.801 123.753 108.801 123.387 108.801 123Z" fill="#A5A1AB"/>
<path d="M91.5647 137C91.1647 137 90.7514 137 90.3247 137C89.9114 137 89.498 137 89.0847 137C89.0447 137 89.0047 136.993 88.9647 136.98C88.938 136.953 88.9114 136.927 88.8847 136.9C88.8714 136.86 88.8647 136.82 88.8647 136.78C88.8647 135.793 88.8647 134.813 88.8647 133.84C88.8647 132.853 88.8647 131.873 88.8647 130.9C88.8647 129.913 88.8647 128.927 88.8647 127.94C88.8647 126.953 88.8647 125.973 88.8647 125C88.8647 124.667 88.8647 124.333 88.8647 124C88.8647 123.667 88.8647 123.333 88.8647 123C89.1447 123 89.498 123 89.9247 123C90.3514 123 90.7714 123 91.1847 123C91.598 123 91.9247 123 92.1647 123C92.2447 123 92.3114 123.013 92.3647 123.04C92.418 123.067 92.4647 123.113 92.5047 123.18C92.558 123.233 92.6047 123.327 92.6447 123.46C92.858 123.967 93.0647 124.467 93.2647 124.96C93.4647 125.453 93.658 125.947 93.8447 126.44C94.0447 126.933 94.238 127.433 94.4247 127.94C94.6114 128.433 94.798 128.94 94.9847 129.46C95.1847 129.98 95.3847 130.527 95.5847 131.1L94.7047 130.18H96.1447L95.2447 131.1C95.4447 130.527 95.638 129.973 95.8247 129.44C96.0247 128.907 96.218 128.387 96.4047 127.88C96.6047 127.36 96.798 126.84 96.9847 126.32C97.1847 125.787 97.3847 125.247 97.5847 124.7C97.798 124.153 98.0247 123.587 98.2647 123C98.5314 123 98.8847 123 99.3247 123C99.7647 123 100.205 123 100.645 123C101.085 123 101.445 123 101.725 123C101.765 123 101.798 123.013 101.825 123.04C101.865 123.053 101.891 123.08 101.905 123.12C101.931 123.147 101.945 123.18 101.945 123.22C101.945 123.793 101.945 124.387 101.945 125C101.945 125.613 101.945 126.253 101.945 126.92C101.945 127.573 101.945 128.24 101.945 128.92C101.945 129.6 101.945 130.28 101.945 130.96C101.945 131.64 101.945 132.327 101.945 133.02C101.945 133.7 101.945 134.367 101.945 135.02C101.945 135.233 101.945 135.453 101.945 135.68C101.945 135.893 101.945 136.113 101.945 136.34C101.945 136.553 101.945 136.773 101.945 137C101.531 137 101.111 137 100.685 137C100.271 137 99.8647 137 99.4647 137C99.4247 137 99.3847 136.993 99.3447 136.98C99.318 136.953 99.2914 136.927 99.2647 136.9C99.2514 136.86 99.2447 136.82 99.2447 136.78C99.2447 136.487 99.2447 136.207 99.2447 135.94C99.2447 135.66 99.2447 135.38 99.2447 135.1C99.2447 134.807 99.2447 134.527 99.2447 134.26C99.2447 133.873 99.2447 133.493 99.2447 133.12C99.258 132.747 99.2647 132.373 99.2647 132C99.278 131.627 99.298 131.24 99.3247 130.84C99.3514 130.44 99.3847 130.02 99.4247 129.58C99.4647 129.14 99.5114 128.673 99.5647 128.18C99.618 127.673 99.678 127.14 99.7447 126.58L100.125 127.18H98.7047L99.5247 126.6C99.3247 127.093 99.118 127.607 98.9047 128.14C98.7047 128.66 98.498 129.187 98.2847 129.72C98.0714 130.24 97.858 130.767 97.6447 131.3C97.4447 131.82 97.238 132.34 97.0247 132.86C96.8247 133.367 96.6314 133.86 96.4447 134.34C96.1247 134.34 95.798 134.34 95.4647 134.34C95.1447 134.34 94.8247 134.34 94.5047 134.34C94.4647 134.34 94.418 134.333 94.3647 134.32C94.3247 134.293 94.2914 134.247 94.2647 134.18C94.0914 133.753 93.9047 133.3 93.7047 132.82C93.518 132.327 93.3247 131.82 93.1247 131.3C92.9247 130.78 92.718 130.253 92.5047 129.72C92.2914 129.187 92.078 128.66 91.8647 128.14C91.6647 127.62 91.4647 127.107 91.2647 126.6L92.0647 127.18H90.6647L91.0247 126.58C91.1047 127.127 91.1714 127.647 91.2247 128.14C91.2914 128.633 91.338 129.1 91.3647 129.54C91.4047 129.967 91.438 130.387 91.4647 130.8C91.4914 131.2 91.5114 131.593 91.5247 131.98C91.538 132.353 91.5447 132.727 91.5447 133.1C91.558 133.473 91.5647 133.86 91.5647 134.26C91.5647 134.713 91.5647 135.173 91.5647 135.64C91.5647 136.093 91.5647 136.547 91.5647 137Z" fill="#A5A1AB"/>
<path d="M76.0969 122.6C77.0969 122.6 77.9969 122.813 78.7969 123.24C79.6102 123.653 80.2502 124.273 80.7169 125.1C81.1969 125.927 81.4369 126.96 81.4369 128.2V132.02C81.4369 133.167 81.2035 134.14 80.7369 134.94C80.2702 135.74 79.6369 136.353 78.8369 136.78C78.0369 137.193 77.1235 137.4 76.0969 137.4C75.0969 137.4 74.1902 137.193 73.3769 136.78C72.5769 136.353 71.9369 135.74 71.4569 134.94C70.9902 134.14 70.7569 133.167 70.7569 132.02V128.2C70.7569 126.96 71.0035 125.927 71.4969 125.1C71.9902 124.273 72.6435 123.653 73.4569 123.24C74.2835 122.813 75.1635 122.6 76.0969 122.6ZM73.4569 131.84C73.4569 132.6 73.5502 133.167 73.7369 133.54C73.9235 133.913 74.1169 134.187 74.3169 134.36C74.5169 134.52 74.7702 134.653 75.0769 134.76C75.3969 134.867 75.7635 134.92 76.1769 134.92C76.6835 134.92 77.1235 134.807 77.4969 134.58C77.8702 134.353 78.1702 134.007 78.3969 133.54C78.6235 133.073 78.7369 132.5 78.7369 131.82V127.98C78.7369 127.553 78.7102 127.2 78.6569 126.92C78.6035 126.627 78.5235 126.38 78.4169 126.18C78.3102 125.98 78.1769 125.807 78.0169 125.66C77.8169 125.46 77.5635 125.307 77.2569 125.2C76.9502 125.093 76.5769 125.04 76.1369 125.04C75.5235 125.04 75.0169 125.16 74.6169 125.4C74.2302 125.64 73.9369 125.98 73.7369 126.42C73.5502 126.86 73.4569 127.38 73.4569 127.98V131.84Z" fill="#A5A1AB"/>
<path d="M59.82 137.4C58.86 137.4 58.02 137.273 57.3 137.02C56.58 136.78 55.98 136.427 55.5 135.96C55.02 135.493 54.66 134.92 54.42 134.24C54.1933 133.56 54.08 132.787 54.08 131.92V127.88C54.08 127.093 54.2 126.38 54.44 125.74C54.68 125.087 55.0333 124.527 55.5 124.06C55.98 123.593 56.56 123.233 57.24 122.98C57.9333 122.727 58.72 122.6 59.6 122.6C60.28 122.6 60.8867 122.667 61.42 122.8C61.9667 122.92 62.4267 123.08 62.8 123.28C63.1867 123.467 63.4867 123.667 63.7 123.88C63.7267 123.907 63.7467 123.94 63.76 123.98C63.7733 124.02 63.78 124.06 63.78 124.1C63.7933 124.14 63.8 124.18 63.8 124.22C63.8 124.713 63.8 125.28 63.8 125.92C63.8 126.547 63.8 127.147 63.8 127.72C63.4133 127.72 63.0267 127.72 62.64 127.72C62.2533 127.72 61.8667 127.72 61.48 127.72C61.4133 127.72 61.36 127.7 61.32 127.66C61.28 127.62 61.26 127.567 61.26 127.5C61.26 127.26 61.26 127.02 61.26 126.78C61.26 126.54 61.26 126.273 61.26 125.98C61.26 125.673 61.26 125.32 61.26 124.92L61.82 125.76C61.4867 125.547 61.14 125.4 60.78 125.32C60.42 125.227 60.0133 125.18 59.56 125.18C59.0267 125.18 58.56 125.28 58.16 125.48C57.7733 125.667 57.4733 125.967 57.26 126.38C57.06 126.793 56.96 127.32 56.96 127.96V131.7C56.96 132.3 57.0133 132.807 57.12 133.22C57.24 133.62 57.4333 133.953 57.7 134.22C57.94 134.46 58.24 134.633 58.6 134.74C58.9733 134.833 59.3867 134.88 59.84 134.88C60.5733 134.88 61.22 134.793 61.78 134.62C62.34 134.447 62.9267 134.167 63.54 133.78H63.92C63.92 133.967 63.92 134.153 63.92 134.34C63.92 134.513 63.92 134.693 63.92 134.88C63.92 135.053 63.92 135.233 63.92 135.42C63.92 135.593 63.92 135.78 63.92 135.98C63.92 136.047 63.9067 136.107 63.88 136.16C63.8667 136.213 63.84 136.253 63.8 136.28C63.6133 136.48 63.3267 136.667 62.94 136.84C62.5533 137 62.0933 137.133 61.56 137.24C61.0267 137.347 60.4467 137.4 59.82 137.4Z" fill="#A5A1AB"/>
<rect x="271" y="119" width="12" height="23" rx="1" fill="#100F11" fill-opacity="0.43"/>
<path fill-rule="evenodd" clip-rule="evenodd" d="M103.808 2.17693C103.808 2.17693 96.6271 3.61745 95.6652 12.0969C86.7587 7.49724 77.7261 8.1263 73.1152 10.9749C69.5353 13.1866 64.6893 17.4053 62.0601 22.1254C60.5152 19.5067 58.2486 16.8539 55.0098 14.2446C39.8659 2.04431 6.9268 17.0242 1.61458 40.6376C-3.69765 64.251 5.79981 80.0935 5.79981 80.0935C13.6025 94.879 35.5 100 51.5 94.5C57.7673 92.3456 61.624 88.3501 63.9727 83.9058C70.0796 93.0117 77.9369 95.651 85.8853 92.8014C90.3246 91.2099 92.1044 87.1818 93.3294 84.4093C94.4637 81.842 95.1224 80.3513 96.9765 82.8688C97.7053 83.8582 97.689 84.8583 97.6734 85.8216C97.6529 87.0819 97.6334 88.2794 99.285 89.3077C102.199 91.1221 106.604 91.4487 108.349 87.0112C110.093 82.5738 105.445 68.2779 103.206 63.3625C101.695 60.0439 96.449 53.8829 88.8915 51.8118C94.3662 50.6439 98.1335 47.9001 100.692 44.988C102.331 52.2335 103.713 57.4542 103.713 57.4542C103.713 57.4542 107.571 67.2872 118.035 65.5107L154.542 59.3133C166.013 57.366 164.075 44.7505 156.212 44.4221C153.441 44.3063 150.755 44.4969 148.143 44.6822C143.345 45.0226 138.8 45.3451 134.445 43.7166C129.172 41.7442 128.115 34.4334 126.338 22.1455L126.338 22.1451C125.849 18.7651 125.306 15.0085 124.606 10.8829C124.606 10.8829 123.328 3.35311 117.527 1.49396C111.727 -0.365187 103.808 2.17693 103.808 2.17693ZM78.2235 51.888C69.8809 50.1497 65.1188 44.4258 63.4412 42.0169C63.2437 42.6746 63.046 43.2972 62.8607 43.8807L62.8606 43.8811C62.644 44.5631 62.4444 45.1918 62.2818 45.7609C60.5209 51.9253 49.9338 52.0808 48.7198 46.2976C47.9592 42.6746 47.9628 39.1894 47.9654 36.5817V36.5816C47.967 35.0267 47.9682 33.7839 47.807 33.0098C47.3754 30.9376 43.1457 26.0367 38.6942 31.9454C34.2428 37.8541 34.1184 69.8219 44.4752 70.8314C50.2328 71.3926 51.3836 67.1507 52.525 62.9437C53.4366 59.5832 54.3423 56.2449 57.5851 55.3948C62.2649 54.1679 64.8036 55.9274 66.1305 59.0159C68.8042 56.2744 72.3151 53.984 76.5357 52.4349C77.1043 52.2262 77.667 52.0444 78.2235 51.888ZM72.6301 80.323C76.1275 84.4297 93.5641 69.6015 88.1208 65.716C82.6776 61.8304 69.1327 76.2163 72.6301 80.323Z" fill="#1E1C21"/>
<path fill-rule="evenodd" clip-rule="evenodd" d="M287.609 9.553C296.276 5.68693 313.044 8.23407 322.288 16.3892C322.288 16.3892 326.839 20.6957 324.069 23.972C321.298 27.2482 316.898 24.3948 316.898 24.3948C315.869 23.8183 314.772 23.113 313.591 22.3542C308.271 18.9349 301.261 14.4296 291.252 15.7356C307.207 15.9202 318.737 28.0821 318.737 28.0821C328.158 37.6921 322.822 50.4728 313.001 54.4687C321.712 54.5764 329.167 54.8505 330.681 55.5118C334.3 57.0932 333.864 62.1554 328.092 62.1002C327.924 62.0986 327.754 62.0968 327.581 62.095C321.825 62.0344 313.697 61.9489 313.559 67.9455C313.505 70.2604 313.552 73.4957 313.599 76.7822C313.678 82.265 313.758 87.8905 313.382 89.6229C312.779 92.3939 311.482 93.902 308.907 94.8934C306.333 95.8847 294.926 97.4245 291.602 93.4199C289.165 90.4849 289.508 84.8328 289.81 79.8532C289.92 78.0386 290.024 76.3132 289.987 74.8412C289.979 74.5066 289.972 74.1722 289.966 73.8393C289.882 69.4771 289.802 65.3708 285.25 64.3131C286.966 70.5393 288.392 77.9741 288.042 81.9088C287.5 88 279.5 87.5 278.089 84.423C277.516 83.1744 277.408 81.8815 277.313 80.7425C277.174 79.0747 277.062 77.7369 275.559 77.3518C273.869 76.9186 272.571 77.9299 270.684 79.3991C268.399 81.1789 265.252 83.6305 259.5 85C249.037 87.4911 241.553 84.4448 237.875 76.1592C235.892 81.752 231.791 87.8185 224 90C211.5 93.5 195 88 188.557 74.5419C188.557 74.5419 180.543 60.8446 185.337 40.6344C190.13 20.4242 218.595 7.91564 231.498 18.5466C233.489 20.1865 235.044 21.8405 236.246 23.4846C238.596 18.2219 244.095 13.375 248.049 10.9544C252.981 7.93572 262.97 7.4326 272.453 13.0926C275.064 14.6506 276.86 17.0281 278.092 19.656C279.116 16.1521 281.77 12.1571 287.609 9.553ZM281.572 54.3912C281.702 54.3879 281.834 54.3877 281.968 54.3908C283.89 54.4351 287.795 54.4263 292.598 54.4155C293.423 54.4137 294.275 54.4118 295.148 54.4101C289.616 52.6932 284.349 49.7407 280.125 46.4874C278.636 45.3403 277.596 44.1739 276.92 43.0535C276.06 44.2231 275.019 45.4073 273.763 46.5147C277.389 48.9326 280.081 51.9918 281.572 54.3912ZM282.626 37.0326C281.923 36.436 281.199 36.0687 280.497 35.8963C280.621 35.4711 280.672 35.2295 280.672 35.2295C280.672 35.2295 280.739 34.3653 280.727 32.9647C286.539 41.8774 299.139 48.3995 308.845 49.9498C295.551 48.1453 288.548 42.1222 283.659 37.9172C283.304 37.612 282.96 37.3163 282.626 37.0326ZM245.512 48.4313C242.04 46.2689 239.775 43.6294 238.614 42.0438C238.394 42.7655 238.171 43.4414 237.965 44.0651C237.772 44.6482 237.594 45.1856 237.449 45.6724C235.876 50.9444 226.772 50.966 225.783 45.9897C225.164 42.8722 225.201 39.8811 225.228 37.643V37.643C225.244 36.3085 225.257 35.2418 225.126 34.5758C224.775 32.7928 221.185 28.5419 217.301 33.566C213.417 38.5901 213.004 66.0253 221.899 67.0012C226.844 67.5436 227.874 63.9152 228.895 60.3165C229.712 57.442 230.522 54.5865 233.318 53.8911C236.438 53.1153 237.984 55.0985 238.75 57.9662C240.216 54.4711 242.437 51.1296 245.512 48.4313ZM248.085 72.4506C251.921 76.9622 271.077 60.6959 265.104 56.4256C259.131 52.1552 244.248 67.939 248.085 72.4506Z" fill="#1E1C21"/>
</svg>
